<?xml version="1.0" encoding="UTF-8" standalone="no"?>
<!-- Generator: Adobe Illustrator 16.0.0, SVG Export Plug-In . SVG Version: 6.00 Build 0)  -->

<svg
   xmlns:dc="http://purl.org/dc/elements/1.1/"
   xmlns:cc="http://creativecommons.org/ns#"
   xmlns:rdf="http://www.w3.org/1999/02/22-rdf-syntax-ns#"
   xmlns:svg="http://www.w3.org/2000/svg"
   xmlns="http://www.w3.org/2000/svg"
   xmlns:sodipodi="http://sodipodi.sourceforge.net/DTD/sodipodi-0.dtd"
   xmlns:inkscape="http://www.inkscape.org/namespaces/inkscape"
   version="1.1"
   id="Capa_1"
   x="0px"
   y="0px"
   width="130"
   height="130"
   viewBox="0 0 130 130.00001"
   xml:space="preserve"
   inkscape:version="0.91 r13725"
   sodipodi:docname="efficiency.svg"><metadata
     id="metadata4344"><rdf:RDF><cc:Work
         rdf:about=""><dc:format>image/svg+xml</dc:format><dc:type
           rdf:resource="http://purl.org/dc/dcmitype/StillImage" /><dc:title></dc:title></cc:Work></rdf:RDF></metadata><defs
     id="defs4342" /><sodipodi:namedview
     pagecolor="#ffffff"
     bordercolor="#666666"
     borderopacity="1"
     objecttolerance="10"
     gridtolerance="10"
     guidetolerance="10"
     inkscape:pageopacity="0"
     inkscape:pageshadow="2"
     inkscape:window-width="1317"
     inkscape:window-height="744"
     id="namedview4340"
     showgrid="false"
     inkscape:zoom="3.2818518"
     inkscape:cx="88.061023"
     inkscape:cy="40.126385"
     inkscape:window-x="49"
     inkscape:window-y="24"
     inkscape:window-maximized="1"
     inkscape:current-layer="Capa_1" /><path
     style="fill:none;fill-opacity:1;stroke:#454545;stroke-width:2.00000024;stroke-miterlimit:4;stroke-dasharray:none;stroke-opacity:1"
     d="m 101.23215,62.51203 c 0.17037,0.148731 0.27049,0.365308 0.27049,0.595143 l 0,21.133209 c 0,0.338124 -0.21636,0.635584 -0.5357,0.743873 l -15.001873,7.001584 c -0.08111,0.02696 -0.165084,0.04066 -0.248842,0.04066 -0.162212,0 -0.324643,-0.05149 -0.457241,-0.148951 -0.205527,-0.14873 -0.327296,-0.384091 -0.327296,-0.635584 l 0,-25.938093 c 0,-0.389616 0.283981,-0.719563 0.670945,-0.77658 l 15.001877,-2.196475 c 0.22453,-0.03514 0.45436,0.03271 0.62764,0.181214 z"
     id="path4304-3"
     inkscape:connector-curvature="0"
     sodipodi:nodetypes="cssccscssccc" /><path
     style="fill:none;fill-opacity:1;stroke:#454545;stroke-width:2.00000024;stroke-miterlimit:4;stroke-dasharray:none;stroke-opacity:1"
     d="m 30.481023,64.883633 c -0.170387,0.14873 -0.270498,0.365306 -0.270498,0.595142 l 0,21.133207 c 0,0.338124 0.216355,0.635585 0.535695,0.743872 l 15.001876,7.001584 c 0.08111,0.02696 0.165084,0.04066 0.248842,0.04066 0.162211,0 0.324643,-0.05148 0.457241,-0.148951 0.205525,-0.14873 0.327295,-0.384092 0.327295,-0.635585 l 0,-25.938089 c 0,-0.389617 -0.28398,-0.719564 -0.670944,-0.77658 L 31.108653,64.702416 c -0.224533,-0.03514 -0.454369,0.03271 -0.62763,0.181217 z"
     id="path4304"
     inkscape:connector-curvature="0"
     sodipodi:nodetypes="cssccscssccc" /><path
     sodipodi:nodetypes="cccccscccccscccccccscccccccccccccccccccccccccsccccc"
     d="M 127.86289,45.930213 95.04586,1.9904456 c 0,0 -0.313593,-0.4950313 -1.038681,-0.7845363 C 93.282312,0.9137525 92.57623,1.1192785 92.57623,1.1192785 l -51.562586,13.2140195 0,-4.5606967 c 0,-1.0954773 -0.754702,-2.0448765 -1.820344,-2.2937181 L 34.884097,6.4835169 c 0,0 -0.278676,-0.075802 -0.670944,-0.054144 -0.392048,0.021657 -0.643762,0.1270728 -0.643762,0.1270728 L 25.797844,9.310057 c -0.938572,0.3325987 -1.5662,1.219899 -1.5662,2.215264 l 0,7.111433 -8.160944,2.088193 c -0.657463,0.170388 -1.20929,0.613927 -1.51758,1.219899 L 1.4478315,47.918515 c -0.3653065,0.722215 -0.335472,1.57968 0.081106,2.272281 0.4165776,0.692381 1.1604504,1.12266 1.9692961,1.141666 l 6.2106526,0.129725 0,46.0905 c 0,0.879125 0.4868538,1.682444 1.2658648,2.085537 l 53.848127,28.020766 c 0,0 0.46807,0.25988 1.081997,0.26785 0.613928,0.005 1.087522,-0.26785 1.087522,-0.26785 l 52.176723,-27.17435 c 0.77637,-0.40574 1.26322,-1.206417 1.26587,-2.085536 l 0.0919,-49.082347 5.28556,0.365085 c 0,0 1.38233,0.156907 2.16134,-1.108959 0.86012,-1.38476 -0.11094,-2.64267 -0.11094,-2.64267 z M 63.559885,121.69718 14.41544,96.124169 l 0,-44.564745 39.219733,0.824979 0.0027,0 0.0052,0 9.919188,0.178565 0,69.134432 -0.0025,0 z M 118.34414,44.453296 c -0.65193,-0.04597 -1.29039,0.181217 -1.76641,0.624978 -0.47602,0.443538 -0.74653,1.068294 -0.74941,1.71758 l -0.0919,50.175172 c -47.475255,24.723494 0,0 -47.475255,24.723494 l 0,-71.441623 c 0,-1.284872 -1.027852,-2.329079 -2.310073,-2.353389 L 58.680071,47.766911 93.044078,7.1758976 121.02461,44.637386 Z"
     id="path4308"
     inkscape:connector-curvature="0"
     style="fill:#ffffff;fill-opacity:1;stroke:#454545;stroke-width:2.00000024;stroke-miterlimit:4;stroke-dasharray:none;stroke-opacity:1" /><g
     id="g4310"
     transform="matrix(0.97478734,0,0,0.97478734,1.1936302,-433.17394)"
     style="stroke-width:2.0517298;stroke-miterlimit:4;stroke-dasharray:none;stroke:#454545;stroke-opacity:1" /><g
     id="g4312"
     transform="matrix(0.97478734,0,0,0.97478734,1.1936302,-433.17394)"
     style="stroke-width:2.0517298;stroke-miterlimit:4;stroke-dasharray:none;stroke:#454545;stroke-opacity:1" /><g
     id="g4314"
     transform="matrix(0.97478734,0,0,0.97478734,1.1936302,-433.17394)"
     style="stroke-width:2.0517298;stroke-miterlimit:4;stroke-dasharray:none;stroke:#454545;stroke-opacity:1" /><g
     id="g4316"
     transform="matrix(0.97478734,0,0,0.97478734,1.1936302,-433.17394)"
     style="stroke-width:2.0517298;stroke-miterlimit:4;stroke-dasharray:none;stroke:#454545;stroke-opacity:1" /><g
     id="g4318"
     transform="matrix(0.97478734,0,0,0.97478734,1.1936302,-433.17394)"
     style="stroke-width:2.0517298;stroke-miterlimit:4;stroke-dasharray:none;stroke:#454545;stroke-opacity:1" /><g
     id="g4320"
     transform="matrix(0.97478734,0,0,0.97478734,1.1936302,-433.17394)"
     style="stroke-width:2.0517298;stroke-miterlimit:4;stroke-dasharray:none;stroke:#454545;stroke-opacity:1" /><g
     id="g4322"
     transform="matrix(0.97478734,0,0,0.97478734,1.1936302,-433.17394)"
     style="stroke-width:2.0517298;stroke-miterlimit:4;stroke-dasharray:none;stroke:#454545;stroke-opacity:1" /><g
     id="g4324"
     transform="matrix(0.97478734,0,0,0.97478734,1.1936302,-433.17394)"
     style="stroke-width:2.0517298;stroke-miterlimit:4;stroke-dasharray:none;stroke:#454545;stroke-opacity:1" /><g
     id="g4326"
     transform="matrix(0.97478734,0,0,0.97478734,1.1936302,-433.17394)"
     style="stroke-width:2.0517298;stroke-miterlimit:4;stroke-dasharray:none;stroke:#454545;stroke-opacity:1" /><g
     id="g4328"
     transform="matrix(0.97478734,0,0,0.97478734,1.1936302,-433.17394)"
     style="stroke-width:2.0517298;stroke-miterlimit:4;stroke-dasharray:none;stroke:#454545;stroke-opacity:1" /><g
     id="g4330"
     transform="matrix(0.97478734,0,0,0.97478734,1.1936302,-433.17394)"
     style="stroke-width:2.0517298;stroke-miterlimit:4;stroke-dasharray:none;stroke:#454545;stroke-opacity:1" /><g
     id="g4332"
     transform="matrix(0.97478734,0,0,0.97478734,1.1936302,-433.17394)"
     style="stroke-width:2.0517298;stroke-miterlimit:4;stroke-dasharray:none;stroke:#454545;stroke-opacity:1" /><g
     id="g4334"
     transform="matrix(0.97478734,0,0,0.97478734,1.1936302,-433.17394)"
     style="stroke-width:2.0517298;stroke-miterlimit:4;stroke-dasharray:none;stroke:#454545;stroke-opacity:1" /><g
     id="g4336"
     transform="matrix(0.97478734,0,0,0.97478734,1.1936302,-433.17394)"
     style="stroke-width:2.0517298;stroke-miterlimit:4;stroke-dasharray:none;stroke:#454545;stroke-opacity:1" /><g
     id="g4338"
     transform="matrix(0.97478734,0,0,0.97478734,1.1936302,-433.17394)"
     style="stroke-width:2.0517298;stroke-miterlimit:4;stroke-dasharray:none;stroke:#454545;stroke-opacity:1" /><path
     style="fill:#ffffff;fill-opacity:1;stroke:none;stroke-width:0.60941207;stroke-linecap:round;stroke-linejoin:round;stroke-miterlimit:4;stroke-dasharray:none;stroke-opacity:1"
     d="m 38.652941,107.44836 -23.233834,-12.093467 0,-21.266766 0,-21.266765 3.123236,-0.003 c 4.012593,-0.0039 30.97913,0.560018 38.240606,0.799689 l 5.560885,0.183542 0,32.875215 c 0,18.081372 -0.102838,32.872932 -0.228529,32.870142 -0.125691,-0.003 -10.683755,-5.44714 -23.462364,-12.09855 z m 8.585723,-12.446521 c 0.263101,-0.263102 0.552386,-0.777293 0.642853,-1.142648 0.09047,-0.365355 0.124951,-6.589837 0.07663,-13.832183 -0.078,-11.690273 -0.143587,-13.223609 -0.584518,-13.664319 -0.359214,-0.359035 -2.720348,-0.824202 -8.531769,-1.680847 -4.419307,-0.651438 -8.137942,-1.186983 -8.263633,-1.190101 -0.125691,-0.0031 -0.502765,0.268568 -0.837941,0.603744 -0.587673,0.587673 -0.609412,1.015687 -0.609412,11.998579 0,10.212915 0.05194,11.432355 0.502886,11.80736 0.85881,0.714173 15.760749,7.571024 16.462709,7.575013 0.365105,0.0021 0.879089,-0.211497 1.142191,-0.474598 z"
     id="path4926"
     inkscape:connector-curvature="0" /><path
     style="fill:#ffffff;fill-opacity:1;stroke:none;stroke-width:2;stroke-linecap:round;stroke-linejoin:round;stroke-miterlimit:4;stroke-dasharray:none;stroke-opacity:1"
     d="m 38.652941,107.46564 -23.233834,-12.080417 0,-21.281931 0,-21.28193 3.427942,-0.0035 c 4.719879,-0.0048 33.154484,0.582496 38.850018,0.802357 l 4.646767,0.179376 0,32.876169 c 0,18.081899 -0.102838,32.874839 -0.228529,32.873209 -0.125691,-0.002 -10.683755,-5.43915 -23.462364,-12.08338 z m 8.636895,-12.626499 c 0.54571,-0.602687 0.586197,-1.336928 0.676274,-12.264418 0.0527,-6.392843 0.0055,-12.629824 -0.104749,-13.859957 -0.19294,-2.151606 -0.23711,-2.251432 -1.162283,-2.626723 -0.528948,-0.214564 -4.377987,-0.890452 -8.553422,-1.501973 l -7.591701,-1.111856 -0.711539,0.668456 -0.711538,0.668456 0,11.16277 c 0,8.450999 0.09253,11.288522 0.380882,11.680417 0.461804,0.627627 15.657642,7.798902 16.559252,7.814704 0.351101,0.0062 0.899572,-0.277292 1.218824,-0.629876 z"
     id="path4934"
     inkscape:connector-curvature="0" /><path
     style="fill:#ffffff;fill-opacity:1;stroke:none;stroke-width:2;stroke-linecap:round;stroke-linejoin:round;stroke-miterlimit:4;stroke-dasharray:none;stroke-opacity:1"
     d="m 69.352073,84.668468 c 0,-38.182401 0.07465,-36.440494 -1.60286,-37.398959 -0.37534,-0.214452 -2.005217,-0.458473 -3.621951,-0.542267 L 61.187747,46.574889 76.993205,27.904969 C 85.686206,17.636513 92.877203,9.2332479 92.973195,9.2310468 93.16824,9.2265745 118.40974,42.942254 118.40974,43.207254 c 0,0.09252 -0.3565,0.168222 -0.79223,0.168222 -0.4947,0 -1.18132,0.389085 -1.82824,1.036 l -1.036,1.036001 0,25.314047 0,25.314044 -0.68559,0.432046 c -0.37707,0.237625 -9.04977,4.780036 -19.272654,10.094246 -10.222887,5.31422 -20.129642,10.47975 -22.01501,11.47897 l -3.427943,1.81677 0,-35.229132 z m 24.581311,4.854689 c 4.153028,-1.935669 7.794116,-3.739449 8.091306,-4.008401 0.49891,-0.451511 0.54034,-1.359894 0.54034,-11.846492 0,-12.663796 0.0584,-12.317842 -2.07853,-12.312144 -1.302897,0.0035 -14.899499,1.979453 -15.629324,2.271392 -1.10444,0.44179 -1.18392,1.426707 -1.18392,14.671171 0,12.884022 0.07009,13.865782 1.03591,14.51068 0.770877,0.514728 2.037018,0.06365 9.224218,-3.286206 z"
     id="path4936"
     inkscape:connector-curvature="0" /><path
     style="fill:#ffffff;fill-opacity:1;stroke:none;stroke-width:2;stroke-linecap:round;stroke-linejoin:round;stroke-miterlimit:4;stroke-dasharray:none;stroke-opacity:1"
     d="m 86.110904,78.12577 0,-12.47914 0.990295,-0.170896 c 0.544662,-0.09399 3.321295,-0.510447 6.170297,-0.925453 2.849001,-0.415005 5.627467,-0.830784 6.174368,-0.923952 l 0.994366,-0.169397 -0.0803,10.286344 -0.0802,10.286345 -6.976212,3.287644 c -3.83692,1.808205 -7.024906,3.287645 -7.084415,3.287645 -0.05951,0 -0.108199,-5.615613 -0.108199,-12.47914 z"
     id="path4938"
     inkscape:connector-curvature="0" /></svg>