<?xml version="1.0" encoding="UTF-8" standalone="no"?>
<!-- Created with Inkscape (http://www.inkscape.org/) -->

<svg
   xmlns:dc="http://purl.org/dc/elements/1.1/"
   xmlns:cc="http://creativecommons.org/ns#"
   xmlns:rdf="http://www.w3.org/1999/02/22-rdf-syntax-ns#"
   xmlns:svg="http://www.w3.org/2000/svg"
   xmlns="http://www.w3.org/2000/svg"
   xmlns:sodipodi="http://sodipodi.sourceforge.net/DTD/sodipodi-0.dtd"
   xmlns:inkscape="http://www.inkscape.org/namespaces/inkscape"
   width="130"
   height="130"
   viewBox="0 0 130 130"
   id="svg5400"
   version="1.1"
   inkscape:version="0.91 r13725"
   sodipodi:docname="coal.svg">
  <defs
     id="defs5402" />
  <sodipodi:namedview
     id="base"
     pagecolor="#ffffff"
     bordercolor="#666666"
     borderopacity="1.0"
     inkscape:pageopacity="0.0"
     inkscape:pageshadow="2"
     inkscape:zoom="1.979899"
     inkscape:cx="-0.47851109"
     inkscape:cy="48.872152"
     inkscape:document-units="px"
     inkscape:current-layer="layer1"
     showgrid="false"
     inkscape:window-width="1317"
     inkscape:window-height="744"
     inkscape:window-x="49"
     inkscape:window-y="24"
     inkscape:window-maximized="1"
     units="px"
     showborder="true" />
  <metadata
     id="metadata5405">
    <rdf:RDF>
      <cc:Work
         rdf:about="">
        <dc:format>image/svg+xml</dc:format>
        <dc:type
           rdf:resource="http://purl.org/dc/dcmitype/StillImage" />
        <dc:title />
      </cc:Work>
    </rdf:RDF>
  </metadata>
  <g
     inkscape:label="Layer 1"
     inkscape:groupmode="layer"
     id="layer1"
     transform="translate(0,-922.36218)">
    <path
       style="fill:#151515;fill-opacity:1;stroke:none;stroke-width:1;stroke-miterlimit:4;stroke-dasharray:none;stroke-opacity:1"
       d="m 59.623057,930.27221 -5.118139,5.08152 -3.612295,9.31714 -15.051433,-2.54075 1.805777,7.90499 -10.234753,1.12942 -2.407965,10.44654 81.278921,-0.5647 -1.50507,-8.75246 -13.245656,-2.82348 0.902891,-11.57517 -9.633344,-3.95289 -8.127499,6.21091 -2.407962,-9.31712 -8.128269,6.49442 -4.515204,-7.05837 z m -1.292659,7.31096 a 1.9490922,1.9778021 0 0 1 1.889514,2.72076 l -5.040487,13.10471 -8.975592,-1.67786 1.394695,4.4805 -12.884037,1.72037 a 1.9490922,1.9778021 0 1 1 -0.508545,-3.92122 l 8.275951,-1.10547 -1.946608,-6.25493 12.183658,2.27732 3.869618,-10.06106 a 1.9490922,1.9778021 0 0 1 1.741833,-1.28312 z m 51.558242,27.12564 -89.05319,0.28194 a 1.4200978,1.9778021 0 1 0 0.0066,3.95522 l 3.681602,-0.0122 7.939466,49.09493 a 15.869589,16.103349 0 0 1 9.235949,-3.0329 15.869589,16.103349 0 0 1 15.869802,16.1035 15.869589,16.103349 0 0 1 -0.392822,3.5017 l 19.118987,0.059 a 15.869589,16.103349 0 0 1 -0.350959,-3.2793 15.869589,16.103349 0 0 1 15.86982,-16.1034 15.869589,16.103349 0 0 1 8.605605,2.5916 l 6.34532,-49.19683 3.1251,-0.0103 a 1.4200978,1.9778021 0 1 0 0,-3.95521 l -7.7e-4,0 -7.6e-4,0 z m -17.269832,55.11109 a 12.796441,12.984932 0 0 0 -12.796499,12.985 12.796441,12.984932 0 0 0 12.796499,12.9848 12.796441,12.984932 0 0 0 12.796512,-12.9848 12.796441,12.984932 0 0 0 -12.796512,-12.985 z m -52.376617,0.3165 a 12.796441,12.984932 0 0 0 -12.796481,12.9851 12.796441,12.984932 0 0 0 12.796481,12.985 12.796441,12.984932 0 0 0 12.796497,-12.985 12.796441,12.984932 0 0 0 -12.796497,-12.9851 z m 52.45807,6.3587 a 6.299787,6.3925827 0 0 1 6.300424,6.3925 6.299787,6.3925827 0 0 1 -6.300424,6.3924 6.299787,6.3925827 0 0 1 -6.299661,-6.3924 6.299787,6.3925827 0 0 1 6.299661,-6.3925 z m -52.376613,0.3166 a 6.299787,6.3925827 0 0 1 6.300419,6.3923 6.299787,6.3925827 0 0 1 -6.300419,6.3927 6.299787,6.3925827 0 0 1 -6.29965,-6.3927 6.299787,6.3925827 0 0 1 6.29965,-6.3923 z"
       id="path5998"
       inkscape:connector-curvature="0" />
    <path
       style="fill:#ffffff;fill-opacity:1;stroke:none;stroke-width:0.133;stroke-linecap:round;stroke-linejoin:round;stroke-miterlimit:4;stroke-dasharray:none;stroke-opacity:1"
       d="m 38.257639,116.51828 c -5.220318,-1.79227 -5.146047,-9.38244 0.111389,-11.38343 6.281482,-2.39075 10.925372,6.70248 5.397142,10.56818 -1.7793,1.2442 -3.512151,1.50066 -5.508531,0.81525 z"
       id="path5869"
       inkscape:connector-curvature="0"
       transform="translate(0,922.36218)" />
    <path
       style="fill:#ffffff;fill-opacity:1;stroke:none;stroke-width:0.133;stroke-linecap:round;stroke-linejoin:round;stroke-miterlimit:4;stroke-dasharray:none;stroke-opacity:1"
       d="m 90.485725,116.20336 c -2.89009,-1.19542 -4.498351,-5.17031 -3.281023,-8.1092 1.882889,-4.5457 8.68805,-4.74751 10.78906,-0.31996 1.081978,2.2801 1.039751,3.75558 -0.163984,5.72977 -1.611129,2.64234 -4.719653,3.78491 -7.344053,2.69939 z"
       id="path5871"
       inkscape:connector-curvature="0"
       transform="translate(0,922.36218)" />
    <path
       style="fill:#ffffff;fill-opacity:1;stroke:none;stroke-width:0.133;stroke-linecap:round;stroke-linejoin:round;stroke-miterlimit:4;stroke-dasharray:none;stroke-opacity:1"
       d="m 33.124432,34.567987 c -1.2911,-1.555681 0.06472,-2.433259 4.886403,-3.162808 2.470954,-0.373869 4.542811,-0.727082 4.604126,-0.784916 0.06132,-0.05784 -0.26484,-1.281942 -0.724789,-2.720238 -0.459948,-1.438296 -0.704597,-2.746758 -0.543663,-2.907691 0.160933,-0.160934 2.744613,0.172203 5.741509,0.740303 2.996896,0.5681 5.567742,0.91407 5.71299,0.768822 0.145248,-0.145248 1.183346,-2.584933 2.306885,-5.421523 1.829847,-4.6198 2.174427,-5.157434 3.305489,-5.157434 0.8864,0 1.306682,0.30733 1.410311,1.031285 0.138343,0.966473 -4.104463,12.71745 -4.854276,13.44452 -0.189259,0.183518 -1.935097,0.02141 -3.879641,-0.360243 -5.492535,-1.078009 -5.391684,-1.108548 -4.517889,1.36805 0.407331,1.154501 0.681355,2.15321 0.608941,2.219353 -0.119238,0.108913 -12.397646,1.742471 -13.097037,1.742471 -0.162502,0 -0.594214,-0.359978 -0.959359,-0.799951 z"
       id="path5873"
       inkscape:connector-curvature="0"
       transform="translate(0,922.36218)" />
  </g>
</svg>
