<?xml version="1.0" encoding="UTF-8" standalone="no"?>
<svg
   xmlns:dc="http://purl.org/dc/elements/1.1/"
   xmlns:cc="http://creativecommons.org/ns#"
   xmlns:rdf="http://www.w3.org/1999/02/22-rdf-syntax-ns#"
   xmlns:svg="http://www.w3.org/2000/svg"
   xmlns="http://www.w3.org/2000/svg"
   xmlns:sodipodi="http://sodipodi.sourceforge.net/DTD/sodipodi-0.dtd"
   xmlns:inkscape="http://www.inkscape.org/namespaces/inkscape"
   version="1.1"
   id="Layer_1"
   x="0px"
   y="0px"
   viewBox="0 0 130 130"
   enable-background="new 0 0 130 130"
   xml:space="preserve"
   inkscape:version="0.91 r13725"
   sodipodi:docname="oil.svg"><metadata
     id="metadata5138"><rdf:RDF><cc:Work
         rdf:about=""><dc:format>image/svg+xml</dc:format><dc:type
           rdf:resource="http://purl.org/dc/dcmitype/StillImage" /></cc:Work></rdf:RDF></metadata><defs
     id="defs5136" /><sodipodi:namedview
     pagecolor="#ffffff"
     bordercolor="#666666"
     borderopacity="1"
     objecttolerance="10"
     gridtolerance="10"
     guidetolerance="10"
     inkscape:pageopacity="0"
     inkscape:pageshadow="2"
     inkscape:window-width="1317"
     inkscape:window-height="744"
     id="namedview5134"
     showgrid="false"
     inkscape:zoom="5.6568544"
     inkscape:cx="28.983628"
     inkscape:cy="35.922871"
     inkscape:window-x="49"
     inkscape:window-y="24"
     inkscape:window-maximized="1"
     inkscape:current-layer="layer6" /><g
     inkscape:groupmode="layer"
     id="layer6"
     inkscape:label="Layer 6"
     style="display:inline"><path
       style="fill:#151515;fill-opacity:1;fill-rule:evenodd;stroke:none;stroke-width:1px;stroke-linecap:butt;stroke-linejoin:miter;stroke-opacity:1"
       d="m 81.538251,19.514566 4.419417,4.640388 c 0,0 -6.732653,0.551036 -8.485282,-1.370019 -1.594594,-1.747835 4.065865,-3.270369 4.065865,-3.270369 z"
       id="path4180"
       inkscape:connector-curvature="0"
       sodipodi:nodetypes="ccsc" /><path
       style="display:inline;fill:#151515;fill-opacity:1;fill-rule:evenodd;stroke:none;stroke-width:1px;stroke-linecap:butt;stroke-linejoin:miter;stroke-opacity:1"
       d="m 75.282209,98.055789 c 9.456457,-1.28033 23.174131,-7.066022 23.174131,-7.066022 0.0423,2.574335 -0.0458,6.710629 -0.0458,6.710629 -5.875,1 -23.128366,0.355393 -23.128366,0.355393 z"
       id="path4148-3-6"
       inkscape:connector-curvature="0"
       sodipodi:nodetypes="cccc" /><path
       style="display:inline;fill:#151515;fill-opacity:1;fill-rule:evenodd;stroke:none;stroke-width:1px;stroke-linecap:butt;stroke-linejoin:miter;stroke-opacity:1"
       d="m 75.054932,70.415624 c 9.456457,-1.28033 23.174126,-7.066022 23.174126,-7.066022 0.0423,2.574335 -0.0458,6.710629 -0.0458,6.710629 -5.874997,1 -23.128361,0.355393 -23.128361,0.355393 z"
       id="path4148-3"
       inkscape:connector-curvature="0"
       sodipodi:nodetypes="cccc" /><path
       style="fill:#151515;fill-opacity:1;fill-rule:evenodd;stroke:none;stroke-width:1px;stroke-linecap:butt;stroke-linejoin:miter;stroke-opacity:1"
       d="m 74.772524,40.473192 c 9.456457,-1.28033 23.174129,-7.066022 23.174129,-7.066022 0.04234,2.574335 -0.04577,6.710629 -0.04577,6.710629 -5.875,1 -23.128364,0.355393 -23.128364,0.355393 z"
       id="path4148"
       inkscape:connector-curvature="0"
       sodipodi:nodetypes="cccc" /><path
       style="fill:#454545;fill-opacity:1;stroke:none;stroke-width:1;stroke-miterlimit:4;stroke-dasharray:none;stroke-opacity:1"
       d="m 63.559775,71.366734 -6.981876,9.179438 c -0.880744,1.308456 -1.12613,2.754368 -1.140935,3.99312 1.13e-4,4.405314 3.780452,7.57856 8.38878,7.577971 4.607284,-8.23e-4 8.297606,-3.173655 8.297718,-7.577971 -0.134753,-1.371011 -0.238321,-2.688998 -1.076806,-3.830029 -2.50858,-3.104094 -4.937407,-6.185709 -7.486881,-9.342529 z m 4.989262,11.265257 c 0.700417,0.234488 1.251733,1.774434 1.379264,2.718557 0.127531,0.944629 -0.385185,2.347261 -0.981139,2.89016 -0.595814,0.542515 -2.161663,1.315354 -2.779274,0.81768 z"
       id="path4594"
       inkscape:connector-curvature="0"
       sodipodi:nodetypes="cccccccccccc" /><path
       style="fill:#454547;fill-opacity:1;stroke:none;stroke-width:1;stroke-miterlimit:4;stroke-dasharray:none;stroke-opacity:1"
       d="m 83.174054,19.07173 c -4.052426,6.4e-5 -7.337142,1.286692 -7.335937,2.873497 9.78e-4,1.5862 3.285055,2.871884 7.335937,2.871948 4.050882,-6.3e-5 7.33496,-1.285748 7.335938,-2.871948 0.0012,-1.586805 -3.283512,-2.873434 -7.335938,-2.873497 z m 0,0.701344 c 2.48983,-2e-6 5.215252,0.861744 5.21492,1.751826 3.32e-4,0.890082 -2.813478,1.891956 -5.303308,1.891955 -2.48983,10e-7 -5.126863,-1.001873 -5.126531,-1.891955 -3.32e-4,-0.890082 2.725089,-1.751828 5.214919,-1.751826 z"
       id="path4603"
       inkscape:connector-curvature="0"
       sodipodi:nodetypes="cccccscscs" /><path
       style="fill:#454545;fill-opacity:1;stroke:none;stroke-width:1;stroke-miterlimit:4;stroke-dasharray:none;stroke-opacity:1"
       d="M 63.669922,9.3046875 C 42.590351,9.3050775 25.501974,15.800112 25.5,23.8125 c 0.0072,0.551631 0.09722,1.102656 0.269531,1.650391 -0.151147,0.54372 -0.244195,1.094468 -0.24414,1.654297 -2.07e-4,2.093521 1.041376,4.015131 2.929687,5.720703 l 0,15.554687 c -1.809245,1.708176 -2.746499,3.531646 -2.761719,5.373047 0.0072,0.551631 0.09722,1.102656 0.269532,1.650391 -0.151147,0.54372 -0.244196,1.094468 -0.244141,1.654296 -1.99e-4,2.018669 0.974277,3.875706 2.736328,5.535157 l 0,13.673828 c -1.14838,1.231052 -2.530613,3.496944 -2.566409,5.1875 0.0072,0.551631 -0.101654,0.992171 -0.128217,1.672488 0.04773,0.742593 0.153552,1.072371 0.153607,1.632199 -1.91e-4,1.94211 0.904067,3.732722 2.541016,5.34375 l 0,14.062496 c -1.538307,1.58103 -2.340012,3.25185 -2.36914,4.9375 0.0072,0.55163 0.09722,1.10265 0.269531,1.65039 -0.151147,0.54373 -0.244196,1.09447 -0.244141,1.6543 -8.27e-4,8.38959 16.574698,15.77303 37.65625,15.77344 21.082311,2e-5 38.686385,-7.38354 38.685545,-15.77344 8e-5,-0.60948 -0.097,-1.20876 -0.27539,-1.79883 0.15199,-0.49997 0.23543,-1.0026 0.25,-1.50586 -0.0112,-1.8319 -0.93508,-3.64642 -2.722655,-5.34765 l -0.412722,-0.2721 c -0.02985,-4.51082 0.006,-8.75707 0.0064,-13.08927 1.899737,-1.684276 2.957227,-3.576054 2.957027,-5.634766 6e-5,-0.609476 -0.097,-1.208752 -0.27539,-1.798828 0.15199,-0.499965 0.23543,-1.002598 0.25,-1.505859 -0.0142,-1.90022 -1.01026,-3.780876 -2.931637,-5.535156 l 0,-13.408203 c 1.773227,-1.638416 2.761907,-3.467963 2.761717,-5.453126 6e-5,-0.609476 -0.097,-1.208752 -0.27539,-1.798828 0.15199,-0.499965 0.23543,-1.002598 0.25,-1.505859 -0.0117,-1.836177 -0.94025,-3.654824 -2.736327,-5.359375 l 0,-16.017578 c 1.652097,-1.591993 2.568547,-3.358944 2.568357,-5.271484 6e-5,-0.609477 -0.097,-1.208753 -0.27539,-1.798829 0.15199,-0.499965 0.23543,-1.002598 0.25,-1.505859 C 101.83983,15.799822 84.750257,9.3046669 63.669922,9.3046875 Z m -0.0957,1.2656245 c 19.844304,9.3e-5 35.93126,5.754741 35.93164,12.853516 -3.8e-4,7.098775 -16.087336,12.853423 -35.93164,12.853516 -19.845067,2.93e-4 -35.933214,-5.754468 -35.933594,-12.853516 3.8e-4,-7.099048 16.088527,-12.853809 35.933594,-12.853516 z m 37.035158,16.853516 c -0.17162,0.950662 -0.622835,1.873224 -1.310549,2.759766 l 0,-0.03516 c -7.54e-4,0.01526 -0.009,0.03298 -0.01172,0.04883 -4.393112,5.639435 -18.656226,9.773543 -35.591797,9.773437 -19.54059,-2.51e-4 -35.532028,-5.502444 -36.896484,-12.472656 4.401273,6.371065 19.541431,10.815749 36.871094,10.824219 15.479301,-0.0096 29.410765,-3.571573 35.269531,-9.017578 l 0.359375,-0.326174 c 0.513269,-0.50847 0.95081,-1.02752 1.31055,-1.554684 z m -2.867189,6.257813 0,19.253906 0.0078,0 c 0.507388,0.0048 1.026992,-0.0053 1.525396,-0.01181 l 0.02344,-1.335937 c 0.249831,0.592288 0.383621,1.190099 0.400391,1.789062 -3.8e-4,7.098775 -16.087336,12.853423 -35.931641,12.853516 -19.84507,2.93e-4 -36.198842,-5.738843 -36.199222,-12.837891 0.01476,-0.769432 0.488251,-1.552462 0.886719,-2.308594 l 0,2.990235 c 0.672962,-0.0014 0.843793,-0.0074 1.525397,-0.0097 l 0.03125,-20.001953 c 6.338549,4.40398 18.776296,7.077843 33.294922,7.078125 14.932638,1.5e-5 28.049398,-2.828786 34.435547,-7.458984 z m 3.060539,23.695312 C 99.538031,64.382675 83.49955,69.923951 63.888672,69.923828 44.348081,69.923577 28.356644,64.421384 26.992188,57.451172 c 4.401273,6.371064 19.364654,10.197031 36.694316,10.205501 17.411309,-0.0055 32.783275,-3.869849 37.116226,-10.27972 z m -3.060542,6.394531 0,16.81836 c 0.51909,-0.0014 1.068145,-0.0036 1.556641,-0.0019 l 0,-1.8125 c 0.39158,0.759616 0.944511,1.662895 0.949261,2.435317 -3.8e-4,7.098775 -16.352506,13.516335 -36.19681,13.516428 -19.845067,2.93e-4 -36.302852,-6.049963 -36.303232,-13.149011 0.02313,-0.604395 0.446661,-1.707454 0.707031,-2.304687 l 0.02762,2.239698 c 0.777383,2.32e-4 0.781104,-0.0041 1.529007,-0.0092 l 0,-17.626953 c 6.275286,4.486715 18.8175,7.216512 33.488281,7.216797 14.784877,1.5e-5 27.787664,-2.773329 34.242188,-7.322266 z m 3.255862,21.306641 C 99.733344,92.083847 83.694858,97.62513 64.083984,97.625 44.543393,97.62475 28.551956,92.122556 27.1875,85.152344 c 4.401274,6.371064 19.541432,10.815748 36.871094,10.824218 17.411311,-0.0054 32.606504,-4.488566 36.939456,-10.898437 z m -1.699222,1.925781 c -0.01275,0.02778 -0.03326,0.07488 -0.04297,0.09766 -0.03928,0.08462 -0.03793,0.08801 -0.03711,0.08984 0.01731,-0.03246 0.04532,-0.08925 0.08008,-0.164062 z m -69.287109,4.429688 c 6.207174,4.571526 18.85787,7.36104 33.683593,7.361328 14.635292,1.4e-5 27.526777,-2.718353 34.046876,-7.185547 l 0,17.414065 c 0.507424,-0.002 1.269838,0.002 1.537117,0.002 l 0.01953,-2.85156 c 0.501911,0.83931 0.767565,1.69448 0.792975,2.55273 -3.7e-4,7.09878 -16.587337,14.10343 -36.431647,14.10352 -19.845072,2.9e-4 -35.43322,-7.00447 -35.433594,-14.10352 0.0076,-0.45881 0.08389,-0.91715 0.228516,-1.37304 l 0,1.86328 c 0.524611,-0.002 1.023795,0.009 1.565253,0.0177 -0.01409,-5.8642 -0.0086,-11.737332 -0.0086,-17.800956 z m 71.183591,21.292966 c -1.264683,7.00572 -17.847375,13.32733 -37.458254,13.32721 -19.540591,-2.5e-4 -34.987834,-6.28277 -36.35229,-13.25299 4.401272,6.37106 19.04143,11.31575 36.371093,11.32422 17.411311,-0.005 33.106502,-4.98857 37.439451,-11.39844 z"
       id="path4197-5-1"
       inkscape:connector-curvature="0"
       sodipodi:nodetypes="cccccccccccccccccccccccccccccccccccccccccccccccccscccccccccccccccccccccccccccccccccccccscccccccccccccccccccccccccccccc" /><path
       style="fill:#ffffff;fill-opacity:1;stroke:none;stroke-width:0.133;stroke-linecap:round;stroke-linejoin:round;stroke-miterlimit:4;stroke-dasharray:none;stroke-opacity:1"
       d="M 56.666858,35.962448 C 49.46796,35.46669 42.057891,33.964038 37.044645,31.983353 30.218698,29.286488 26.890217,25.698524 27.921954,22.149474 c 1.285885,-4.423289 9.216014,-8.409554 20.43871,-10.273996 5.600669,-0.930447 7.663326,-1.073523 15.377262,-1.066642 6.309055,0.0056 7.546338,0.05352 10.416587,0.403229 14.49183,1.765654 23.957237,6.007991 25.133647,11.264745 1.43672,6.419944 -11.366057,12.325673 -29.271644,13.502567 -3.254434,0.213907 -10.124198,0.205196 -13.349658,-0.01693 z M 87.203983,24.438445 c 2.06833,-0.583712 3.404,-1.582254 3.404,-2.544818 0,-0.297663 -0.232166,-0.676203 -0.669309,-1.091291 -2.492212,-2.366475 -11.007009,-2.382789 -13.484681,-0.02584 -0.458345,0.436013 -0.695252,0.816675 -0.695252,1.117128 0,1.042141 1.594983,2.150743 3.71231,2.58026 0.53475,0.108478 1.131371,0.233733 1.325825,0.278345 0.753804,0.172936 5.50737,-0.05987 6.407107,-0.313787 z"
       id="path4173"
       inkscape:connector-curvature="0" /><path
       style="fill:#ffffff;fill-opacity:1;stroke:none;stroke-width:0.133;stroke-linecap:round;stroke-linejoin:round;stroke-miterlimit:4;stroke-dasharray:none;stroke-opacity:1"
       d="M 58.997989,66.026612 C 47.05292,65.460442 36.458699,62.733045 31.194619,58.868855 29.811386,57.853467 28.450805,56.255286 28.044023,55.168061 27.590094,53.954827 27.582959,53.085595 28.01936,52.163375 l 0.334608,-0.707106 0.01431,1.370019 0.01431,1.370019 0.769556,0 0.769556,0 0.114328,-1.352497 c 0.06288,-0.743873 0.114327,-5.198645 0.114327,-9.899494 0,-4.700849 0.04578,-8.546998 0.10174,-8.546998 0.05596,0 0.632691,0.30972 1.281631,0.688267 5.145649,3.001613 13.632091,5.069802 24.072473,5.866583 3.690737,0.281666 11.987466,0.262773 15.46796,-0.03522 2.032755,-0.174043 5.14085,-0.22594 11.048543,-0.184484 7.363752,0.05167 13.295856,-0.120141 14.981825,-0.433929 l 0.574524,-0.106929 0,6.383635 0,6.383635 0.795495,0 c 0.437523,0 0.795496,-0.07955 0.795496,-0.176777 0,-0.09723 0.0906,-0.176777 0.201329,-0.176777 0.325299,0 0.06216,2.007352 -0.383942,2.92887 -0.557753,1.152165 -2.10494,2.753896 -3.673513,3.803022 -5.562717,3.720573 -15.468199,6.14329 -27.397785,6.701044 -4.03703,0.188746 -4.811439,0.187747 -9.018141,-0.01163 l 0,-9e-6 z"
       id="path4175"
       inkscape:connector-curvature="0" /><path
       style="fill:#ffffff;fill-opacity:1;stroke:none;stroke-width:0.133;stroke-linecap:round;stroke-linejoin:round;stroke-miterlimit:4;stroke-dasharray:none;stroke-opacity:1"
       d="m 83.558304,21.505445 -1.465827,-1.603816 1.261846,0 c 2.410309,0 4.867174,0.851276 4.867174,1.68642 0,0.393871 -1.51687,1.226596 -2.570954,1.411393 -0.608085,0.106607 -0.669294,0.0629 -2.092239,-1.493997 z"
       id="path4177"
       inkscape:connector-curvature="0" /><path
       style="fill:#ffffff;fill-opacity:1;stroke:none;stroke-width:0.133;stroke-linecap:round;stroke-linejoin:round;stroke-miterlimit:4;stroke-dasharray:none;stroke-opacity:1"
       d="m 58.257848,39.754131 c -2.541442,-0.121962 -7.149321,-0.635376 -10.009494,-1.115267 -9.086687,-1.524601 -16.12449,-4.33316 -19.361072,-7.726378 -0.854869,-0.896241 -1.742131,-2.238209 -1.742131,-2.634942 0,-0.0679 0.50079,0.357433 1.112867,0.945179 8.904703,8.550735 36.179367,11.805561 56.427946,6.733837 6.58805,-1.650129 11.671293,-4.043466 14.539882,-6.845795 0.60767,-0.593634 1.104854,-1.035175 1.104854,-0.981204 0,0.05397 -0.12858,0.352716 -0.28574,0.663876 -2.040816,4.04068 -8.802413,7.469673 -18.540977,9.402643 -6.970867,1.38362 -15.278325,1.94042 -23.246135,1.558051 z"
       id="path4179"
       inkscape:connector-curvature="0" /><path
       style="fill:#ffffff;fill-opacity:1;stroke:none;stroke-width:0.133;stroke-linecap:round;stroke-linejoin:round;stroke-miterlimit:4;stroke-dasharray:none;stroke-opacity:1"
       d="M 60.114003,69.725244 C 46.298484,69.29429 34.182572,65.896358 29.290341,61.080686 c -0.9899,-0.974409 -1.659825,-1.922055 -1.867538,-2.641738 -0.117821,-0.408224 -0.09235,-0.398764 0.333815,0.12399 1.362825,1.671694 5.629591,4.12708 9.464804,5.446688 7.802753,2.684747 19.299457,4.043576 30.579304,3.614257 14.945409,-0.568834 26.526651,-3.721471 31.690285,-8.626707 0.559059,-0.531079 1.016469,-0.910547 1.016469,-0.84326 0,0.39205 -0.884125,1.734297 -1.718672,2.609232 -4.761328,4.991756 -17.096938,8.540005 -31.161795,8.963466 -2.090385,0.06294 -5.471239,0.06232 -7.51301,-0.0014 l 0,-9e-6 z"
       id="path4181"
       inkscape:connector-curvature="0" /><path
       style="fill:#ffffff;fill-opacity:1;stroke:none;stroke-width:0.133;stroke-linecap:round;stroke-linejoin:round;stroke-miterlimit:4;stroke-dasharray:none;stroke-opacity:1"
       d="M 59.937227,94.560998 C 46.236775,93.911031 34.676939,90.549242 29.949949,85.840208 28.212545,84.109404 27.495881,82.029902 28.091496,80.447646 l 0.266179,-0.707107 0.01246,0.928078 0.01246,0.928077 0.883884,0 0.883883,0 0,-8.748812 0,-8.748812 0.852569,0.524591 c 7.070462,4.350499 20.225658,6.803591 34.767935,6.483289 2.625133,-0.05782 5.665505,-0.191647 6.756384,-0.297394 1.090876,-0.105747 6.778666,-0.217778 12.639533,-0.248956 5.860865,-0.03118 11.073755,-0.116518 11.584198,-0.189642 l 0.928077,-0.132954 0,5.247089 0,5.247089 0.83969,-0.05388 c 0.810865,-0.05203 0.842722,-0.07501 0.928077,-0.669362 l 0.08839,-0.615482 0.334445,0.744157 c 0.698169,1.553468 -0.03621,3.590532 -1.994455,5.532335 -1.425108,1.413142 -2.857121,2.370127 -5.411058,3.616098 -7.688513,3.750943 -20.580705,5.841694 -32.526911,5.274949 z m 5.969715,-2.617437 c 3.144163,-0.666262 5.550763,-3.040104 6.145196,-6.061552 0.262241,-1.332944 0.01085,-3.390102 -0.548191,-4.485914 -0.432845,-0.848446 -7.780125,-10.078849 -7.968482,-10.010821 -0.07121,0.02572 -1.766307,2.194597 -3.766881,4.819731 -3.209927,4.212035 -3.681115,4.914677 -4.00931,5.978744 -0.544426,1.765133 -0.422616,3.857912 0.316482,5.437327 1.590468,3.398753 5.688193,5.200404 9.831186,4.322485 z"
       id="path4183"
       inkscape:connector-curvature="0" /><path
       style="fill:#ffffff;fill-opacity:1;stroke:none;stroke-width:0.133;stroke-linecap:round;stroke-linejoin:round;stroke-miterlimit:4;stroke-dasharray:none;stroke-opacity:1"
       d="m 66.36132,89.11091 c -0.09436,-0.09436 2.055148,-6.064499 2.255692,-6.265043 0.187012,-0.187012 0.760255,0.799001 1.036128,1.782205 0.464309,1.654785 -0.109764,3.266779 -1.416446,3.977366 -0.750092,0.407908 -1.713319,0.667528 -1.875374,0.505472 z"
       id="path4185"
       inkscape:connector-curvature="0" /><path
       style="fill:#ffffff;fill-opacity:1;stroke:none;stroke-width:0.133;stroke-linecap:round;stroke-linejoin:round;stroke-miterlimit:4;stroke-dasharray:none;stroke-opacity:1"
       d="M 57.1088,97.319788 C 44.056077,96.342805 33.331633,92.946672 29.197161,88.480949 c -0.870582,-0.940332 -1.698457,-2.195071 -1.698457,-2.574204 0,-0.0679 0.50079,0.357433 1.112868,0.94518 8.974578,8.617833 36.13575,11.849326 56.592197,6.733042 3.515058,-0.879138 5.767168,-1.665565 8.549729,-2.985526 2.580803,-1.224254 4.282079,-2.322936 5.809513,-3.751775 0.616679,-0.576877 1.121239,-0.972531 1.121239,-0.87923 0,0.397091 -1.4253,2.324983 -2.310444,3.125153 -4.275827,3.865351 -13.311876,6.810606 -24.471221,7.976273 -3.304329,0.345159 -13.495222,0.49682 -16.793785,0.249926 z"
       id="path4187"
       inkscape:connector-curvature="0" /><path
       style="fill:#ffffff;fill-opacity:1;stroke:none;stroke-width:0.133;stroke-linecap:round;stroke-linejoin:round;stroke-miterlimit:4;stroke-dasharray:none;stroke-opacity:1"
       d="m 60.025615,122.68239 c -6.089299,-0.40611 -9.923587,-0.9492 -14.256229,-2.01928 -8.809173,-2.17569 -14.866334,-5.61794 -16.841733,-9.57107 -0.780819,-1.56255 -0.746021,-1.74141 0.338818,-1.74141 l 0.883883,0 0,-8.82745 0,-8.827461 1.625635,0.960616 c 5.038179,2.97715 13.62204,5.108193 23.918597,5.93807 3.701557,0.298336 12.59762,0.278593 16.175067,-0.0359 2.070418,-0.182009 4.806355,-0.241385 9.428454,-0.204619 6.125579,0.04873 15.101964,-0.191783 15.983196,-0.428245 l 0.397747,-0.106729 0,5.687156 0,5.68716 0.83969,-0.0539 0.839689,-0.0539 0.08839,-1.14905 0.08839,-1.14905 0.243186,0.68869 c 0.151749,0.42974 0.209031,1.06534 0.15235,1.69044 -0.546371,6.02547 -13.185129,11.81467 -28.944972,13.25828 -2.159014,0.19776 -9.330136,0.36632 -10.960155,0.25761 z"
       id="path4189"
       inkscape:connector-curvature="0" /><path
       style="fill:#ffffff;fill-opacity:1;stroke:none;stroke-width:0.133;stroke-linecap:round;stroke-linejoin:round;stroke-miterlimit:4;stroke-dasharray:none;stroke-opacity:1"
       d="m 58.788178,125.85925 c -13.865988,-0.97617 -24.742661,-4.52397 -29.360924,-9.57709 -0.715293,-0.78264 -1.751773,-2.40899 -1.751773,-2.74872 0,-0.0394 0.524575,0.43522 1.165722,1.05465 7.551228,7.29549 27.16766,11.1685 45.503324,8.98404 11.546122,-1.37557 21.223988,-4.87995 25.621743,-9.27771 0.49212,-0.49211 0.89476,-0.84803 0.89476,-0.79091 0,0.0571 -0.16979,0.43877 -0.37731,0.84811 -2.249559,4.43735 -11.188569,8.59461 -22.482327,10.45584 -4.614,0.7604 -7.522527,0.99716 -13.026031,1.06036 -2.868201,0.0329 -5.652434,0.0291 -6.187184,-0.009 z"
       id="path4191"
       inkscape:connector-curvature="0" /></g></svg>