<?xml version="1.0" encoding="UTF-8" standalone="no"?>
<!-- Created with Inkscape (http://www.inkscape.org/) -->

<svg
   xmlns:dc="http://purl.org/dc/elements/1.1/"
   xmlns:cc="http://creativecommons.org/ns#"
   xmlns:rdf="http://www.w3.org/1999/02/22-rdf-syntax-ns#"
   xmlns:svg="http://www.w3.org/2000/svg"
   xmlns="http://www.w3.org/2000/svg"
   xmlns:sodipodi="http://sodipodi.sourceforge.net/DTD/sodipodi-0.dtd"
   xmlns:inkscape="http://www.inkscape.org/namespaces/inkscape"
   width="130"
   height="130"
   viewBox="0 0 130 130"
   id="svg6108"
   version="1.1"
   inkscape:version="0.91 r13725"
   sodipodi:docname="uranium.svg">
  <defs
     id="defs6110" />
  <sodipodi:namedview
     id="base"
     pagecolor="#ffffff"
     bordercolor="#666666"
     borderopacity="1.0"
     inkscape:pageopacity="0.0"
     inkscape:pageshadow="2"
     inkscape:zoom="5.6568543"
     inkscape:cx="80.829795"
     inkscape:cy="-10.005038"
     inkscape:document-units="px"
     inkscape:current-layer="layer2"
     showgrid="false"
     units="px"
     inkscape:window-width="1317"
     inkscape:window-height="744"
     inkscape:window-x="49"
     inkscape:window-y="24"
     inkscape:window-maximized="1" />
  <metadata
     id="metadata6113">
    <rdf:RDF>
      <cc:Work
         rdf:about="">
        <dc:format>image/svg+xml</dc:format>
        <dc:type
           rdf:resource="http://purl.org/dc/dcmitype/StillImage" />
        <dc:title />
      </cc:Work>
    </rdf:RDF>
  </metadata>
  <g
     inkscape:label="Layer 1"
     inkscape:groupmode="layer"
     id="layer1"
     transform="translate(0,-922.36218)"
     style="display:none;opacity:1"
     sodipodi:insensitive="true">
    <path
       style="display:inline;fill:#151515;fill-opacity:1;fill-rule:evenodd;stroke:none;stroke-width:1px;stroke-linecap:butt;stroke-linejoin:miter;stroke-opacity:1"
       d="m 84.231758,938.47794 4.41942,4.64039 c 0,0 -6.73266,0.55103 -8.48528,-1.37002 -1.5946,-1.74784 4.06586,-3.27037 4.06586,-3.27037 z"
       id="path4180"
       inkscape:connector-curvature="0"
       sodipodi:nodetypes="ccsc" />
    <path
       style="display:inline;fill:#151515;fill-opacity:1;fill-rule:evenodd;stroke:none;stroke-width:1px;stroke-linecap:butt;stroke-linejoin:miter;stroke-opacity:1"
       d="m 77.975718,1017.0192 c 9.45646,-1.2803 23.174132,-7.066 23.174132,-7.066 0.0423,2.5743 -0.0458,6.7106 -0.0458,6.7106 -5.875002,1 -23.128372,0.3554 -23.128372,0.3554 z"
       id="path4148-3-6"
       inkscape:connector-curvature="0"
       sodipodi:nodetypes="cccc" />
    <path
       style="display:inline;fill:#151515;fill-opacity:1;fill-rule:evenodd;stroke:none;stroke-width:1px;stroke-linecap:butt;stroke-linejoin:miter;stroke-opacity:1"
       d="m 77.748438,989.379 c 9.45646,-1.28033 23.174132,-7.06602 23.174132,-7.06602 0.0423,2.57433 -0.0458,6.71062 -0.0458,6.71062 -5.875002,1 -23.128362,0.3554 -23.128362,0.3554 z"
       id="path4148-3"
       inkscape:connector-curvature="0"
       sodipodi:nodetypes="cccc" />
    <path
       style="display:inline;fill:#151515;fill-opacity:1;fill-rule:evenodd;stroke:none;stroke-width:1px;stroke-linecap:butt;stroke-linejoin:miter;stroke-opacity:1"
       d="m 77.466028,959.43657 c 9.45646,-1.28033 23.174132,-7.06603 23.174132,-7.06603 0.0423,2.57434 -0.0458,6.71063 -0.0458,6.71063 -5.875002,1 -23.128362,0.3554 -23.128362,0.3554 z"
       id="path4148"
       inkscape:connector-curvature="0"
       sodipodi:nodetypes="cccc" />
    <path
       style="display:inline;fill:#454545;fill-opacity:1;stroke:none;stroke-width:1;stroke-miterlimit:4;stroke-dasharray:none;stroke-opacity:1"
       d="m 66.253278,990.33011 -6.981871,9.17944 c -0.880744,1.30845 -1.12613,2.75435 -1.140935,3.99315 1.13e-4,4.4053 3.780456,7.5785 8.388776,7.578 4.60729,-9e-4 8.29761,-3.1737 8.29772,-7.578 -0.13475,-1.3711 -0.23832,-2.689 -1.0768,-3.83006 -2.50858,-3.1041 -4.93741,-6.18571 -7.48689,-9.34253 z m 4.98927,11.26529 c 0.70041,0.2344 1.25173,1.7744 1.37926,2.7185 0.12753,0.9446 -0.38518,2.3473 -0.98114,2.8902 -0.59581,0.5425 -2.16166,1.3154 -2.77927,0.8177 z"
       id="path4594"
       inkscape:connector-curvature="0"
       sodipodi:nodetypes="cccccccccccc" />
    <path
       style="display:inline;fill:#454547;fill-opacity:1;stroke:none;stroke-width:1;stroke-miterlimit:4;stroke-dasharray:none;stroke-opacity:1"
       d="m 85.867558,938.0351 c -4.05242,7e-5 -7.33714,1.2867 -7.33593,2.8735 9.7e-4,1.5862 3.28505,2.87188 7.33593,2.87195 4.05089,-6e-5 7.33496,-1.28575 7.33594,-2.87195 0.001,-1.5868 -3.28351,-2.87343 -7.33594,-2.8735 z m 0,0.70135 c 2.48983,0 5.21526,0.86174 5.21492,1.75182 3.4e-4,0.89009 -2.81347,1.89196 -5.3033,1.89196 -2.48983,0 -5.12687,-1.00187 -5.12654,-1.89196 -3.3e-4,-0.89008 2.72509,-1.75182 5.21492,-1.75182 z"
       id="path4603"
       inkscape:connector-curvature="0"
       sodipodi:nodetypes="cccccscscs" />
    <path
       style="display:inline;fill:#454545;fill-opacity:1;stroke:none;stroke-width:1;stroke-miterlimit:4;stroke-dasharray:none;stroke-opacity:1"
       d="m 66.363428,928.26806 c -21.079569,3.9e-4 -38.167946,6.49542 -38.16992,14.50781 0.0072,0.55163 0.09722,1.10266 0.269531,1.65039 -0.151147,0.54372 -0.244195,1.09447 -0.24414,1.6543 -2.07e-4,2.09352 1.041376,4.01513 2.929687,5.7207 l 0,15.55469 c -1.809245,1.70818 -2.746499,3.53165 -2.761719,5.37305 0.0072,0.55163 0.09722,1.10265 0.269532,1.65039 -0.151147,0.54372 -0.244196,1.09447 -0.244141,1.6543 -1.99e-4,2.01866 0.974277,3.8757 2.736328,5.53515 l 0,13.67383 c -1.14838,1.23105 -2.530613,3.49694 -2.566409,5.18753 0.0072,0.5516 -0.101654,0.9921 -0.128217,1.6725 0.04773,0.7425 0.153552,1.0723 0.153607,1.6322 -1.91e-4,1.9421 0.904067,3.7327 2.541016,5.3437 l 0,14.0625 c -1.538307,1.5811 -2.340012,3.2519 -2.36914,4.9375 0.0072,0.5517 0.09722,1.1027 0.269531,1.6504 -0.151147,0.5437 -0.244196,1.0945 -0.244141,1.6543 -8.27e-4,8.3896 16.574698,15.773 37.656245,15.7735 21.08232,0 38.686392,-7.3836 38.685552,-15.7735 8e-5,-0.6095 -0.097,-1.2087 -0.27539,-1.7988 0.15199,-0.5 0.23543,-1.0026 0.25,-1.5059 -0.0112,-1.8319 -0.93508,-3.6464 -2.72266,-5.3476 l -0.41272,-0.2721 c -0.0299,-4.5108 0.006,-8.7571 0.006,-13.0893 1.89974,-1.6843 2.95723,-3.5761 2.95703,-5.6348 6e-5,-0.6095 -0.097,-1.2087 -0.27539,-1.7988 0.15199,-0.5 0.23543,-1.0026 0.25,-1.5059 -0.0142,-1.90019 -1.01026,-3.78085 -2.93164,-5.53513 l 0,-13.4082 c 1.77323,-1.63841 2.76191,-3.46796 2.76172,-5.45312 6e-5,-0.60948 -0.097,-1.20876 -0.27539,-1.79883 0.15199,-0.49997 0.23543,-1.0026 0.25,-1.50586 -0.0117,-1.83618 -0.94025,-3.65483 -2.73633,-5.35938 l 0,-16.01757 c 1.6521,-1.592 2.56855,-3.35895 2.56836,-5.27149 6e-5,-0.60948 -0.097,-1.20875 -0.27539,-1.79883 0.15199,-0.49996 0.23543,-1.0026 0.25,-1.50586 -0.002,-8.01264 -17.091462,-14.50779 -38.171802,-14.50777 z m -0.0957,1.26562 c 19.84431,10e-5 35.931262,5.75475 35.931642,12.85352 -3.8e-4,7.09878 -16.087332,12.85342 -35.931642,12.85352 -19.845065,2.9e-4 -35.933212,-5.75447 -35.933592,-12.85352 3.8e-4,-7.09905 16.088527,-12.85381 35.933592,-12.85352 z m 37.035162,16.85352 c -0.17162,0.95066 -0.62284,1.87323 -1.31055,2.75977 l 0,-0.0352 c -7.5e-4,0.0153 -0.009,0.033 -0.0117,0.0488 -4.393112,5.63943 -18.656232,9.77354 -35.591802,9.77343 -19.540586,-2.5e-4 -35.532024,-5.50244 -36.89648,-12.47265 4.401273,6.37106 19.541431,10.81575 36.87109,10.82422 15.4793,-0.01 29.41077,-3.57158 35.269532,-9.01758 l 0.35938,-0.32617 c 0.51327,-0.50847 0.95081,-1.02752 1.31055,-1.55469 z m -2.86719,6.25781 0,19.25391 0.008,0 c 0.50739,0.005 1.02699,-0.005 1.5254,-0.0118 l 0.0234,-1.33594 c 0.24983,0.59229 0.38362,1.1901 0.40039,1.78907 -3.8e-4,7.09877 -16.087342,12.85342 -35.931642,12.85351 -19.845073,2.9e-4 -36.198845,-5.73884 -36.199225,-12.83789 0.01476,-0.76943 0.488251,-1.55246 0.886719,-2.30859 l 0,2.99023 c 0.672962,-10e-4 0.843793,-0.007 1.525397,-0.01 l 0.03125,-20.00195 c 6.338549,4.40398 18.776296,7.07784 33.294919,7.07812 14.93264,2e-5 28.0494,-2.82878 34.435552,-7.45898 z m 3.06054,23.69532 c -1.2647,7.00572 -17.303182,12.54699 -36.914062,12.54687 -19.540589,-2.5e-4 -35.532026,-5.50244 -36.896482,-12.47265 4.401273,6.37106 19.364654,10.19703 36.694312,10.2055 17.41131,-0.005 32.78328,-3.86985 37.116232,-10.27972 z m -3.06054,6.39453 0,16.81836 c 0.51909,-10e-4 1.06814,-0.004 1.55664,-0.002 l 0,-1.8125 c 0.39158,0.75961 0.94451,1.66289 0.94926,2.43528 -3.8e-4,7.0988 -16.352512,13.5164 -36.196812,13.5165 -19.845067,3e-4 -36.302852,-6.05 -36.303232,-13.1491 0.02313,-0.60434 0.446661,-1.7074 0.707031,-2.30464 l 0.02762,2.23974 c 0.777383,2e-4 0.781104,0 1.529007,-0.01 l 0,-17.62699 c 6.275286,4.48671 18.8175,7.21651 33.488284,7.2168 14.78487,10e-6 27.78766,-2.77333 34.242182,-7.32227 z m 3.25586,21.30664 c -1.26471,7.0057 -17.303192,12.547 -36.914072,12.5469 -19.540587,-3e-4 -35.532024,-5.5025 -36.89648,-12.4727 4.401274,6.3711 19.541432,10.8158 36.87109,10.8243 17.41131,-0.01 32.60651,-4.4886 36.939462,-10.8985 z m -1.69922,1.9258 c -0.0127,0.028 -0.0333,0.075 -0.043,0.098 -0.0393,0.085 -0.0379,0.088 -0.0371,0.09 0.0173,-0.033 0.0453,-0.089 0.0801,-0.1641 z m -69.287113,4.4297 c 6.207174,4.5715 18.85787,7.361 33.683591,7.3613 14.63529,0 27.52678,-2.7183 34.046882,-7.1855 l 0,17.414 c 0.50742,0 1.26984,0 1.53711,0 l 0.0195,-2.8515 c 0.50192,0.8393 0.76757,1.6945 0.79298,2.5527 -3.7e-4,7.0988 -16.587342,14.1034 -36.431652,14.1035 -19.845069,3e-4 -35.433217,-7.0044 -35.433591,-14.1035 0.0076,-0.4588 0.08389,-0.9171 0.228516,-1.373 l 0,1.8632 c 0.524611,0 1.023795,0.01 1.565253,0.018 -0.01409,-5.8642 -0.0086,-11.7373 -0.0086,-17.8009 z m 71.183593,21.293 c -1.26468,7.0057 -17.847382,13.3273 -37.458252,13.3272 -19.540595,-3e-4 -34.987838,-6.2828 -36.352294,-13.253 4.401272,6.371 19.04143,11.3157 36.371094,11.3242 17.41131,0 33.1065,-4.9886 37.439452,-11.3984 z"
       id="path4197-5-1"
       inkscape:connector-curvature="0"
       sodipodi:nodetypes="cccccccccccccccccccccccccccccccccccccccccccccccccscccccccccccccccccccccccccccccccccccccscccccccccccccccccccccccccccccc" />
  </g>
  <g
     inkscape:groupmode="layer"
     id="layer2"
     inkscape:label="Layer 2"
     style="display:inline">
    <path
       style="fill:#454545;fill-opacity:1;stroke:none;stroke-width:2;stroke-linecap:round;stroke-miterlimit:4;stroke-dasharray:none;stroke-opacity:1"
       d="m 66.644607,42.848652 c -15.132819,-2e-6 -27.400393,12.267572 -27.400391,27.400391 -2e-6,15.132819 12.267572,27.400392 27.400391,27.40039 15.132819,2e-6 27.400393,-12.267571 27.400391,-27.40039 C 94.045,55.116224 81.777426,42.84865 66.644607,42.848652 Z m -0.08789,3.005746 c 12.935307,5.73e-4 24.481962,11.900781 24.482534,24.836088 5.07e-4,12.93607 -11.369688,24.30714 -24.305758,24.307712 C 53.79666,94.998704 41.894945,83.273766 41.895451,70.336933 41.896023,57.400863 53.620646,45.853891 66.556717,45.854398 Z"
       id="path9719"
       inkscape:connector-curvature="0"
       sodipodi:nodetypes="ssssssssss" />
    <path
       style="display:inline;opacity:1;fill:#454545;fill-opacity:1;stroke:none;stroke-width:1;stroke-miterlimit:4;stroke-dasharray:none;stroke-opacity:1"
       d="m 66.486328,7.9511719 c -21.07866,7.962e-4 -38.165996,6.4956731 -38.167969,14.5078121 0.0028,0.210749 0.02779,0.42239 0.05469,0.632813 -0.283995,3.510985 -2.833531,37.963139 2.082031,78.464843 -1.230496,1.42655 -1.882223,2.9165 -1.908203,4.41992 0.0072,0.5517 0.09722,1.10269 0.269531,1.65039 -0.151147,0.5437 -0.244195,1.0945 -0.24414,1.6543 -8.27e-4,8.3896 16.574703,15.77294 37.65625,15.77344 21.08232,0 38.686384,-7.38354 38.685544,-15.77344 8e-5,-0.6095 -0.097,-1.20873 -0.27539,-1.79883 0.15199,-0.5 0.23543,-1.00256 0.25,-1.50586 -0.01,-1.6052 -0.73554,-3.19511 -2.11523,-4.70898 2.74446,-26.247783 4.22146,-52.903713 1.85351,-79.257814 C 103.9986,14.205866 87.171054,7.9515506 66.488281,7.9511719 Z m -0.09375,1.265625 c 19.84431,10e-5 35.931262,5.7547461 35.931642,12.8535151 -3.8e-4,7.098781 -16.087332,12.853416 -35.931642,12.853516 -19.845065,2.9e-4 -35.933213,-5.754465 -35.933594,-12.853516 3.8e-4,-7.09905 16.088529,-12.8538051 35.933594,-12.8535151 z M 103.40234,26.103516 c 0.001,0.01763 8.5e-4,0.03694 0.002,0.05469 -0.18308,0.919424 -0.62077,1.81288 -1.28711,2.671875 l 0,-0.03516 c -7.5e-4,0.0153 -0.009,0.03303 -0.0117,0.04883 -4.393124,5.63943 -18.656228,9.773548 -35.591798,9.773438 -18.856796,-2.42e-4 -34.403823,-5.123708 -36.695313,-11.746094 0.0088,-0.14334 0.01686,-0.287833 0.02539,-0.423828 4.666522,6.208037 19.591799,10.513149 36.644531,10.521484 15.4793,-0.01 29.410778,-3.571578 35.269529,-9.017578 L 102.11719,27.625 c 0.5024,-0.497701 0.92981,-1.005818 1.28515,-1.521484 z m -73.703121,2.724609 c 6.331879,9.918697 28.632191,10.904383 36.425781,10.958984 8.555186,-0.0906 26.143803,-0.676214 35.99023,-8.751953 0.58777,-0.566382 1.07732,-1.156279 1.47071,-1.765625 0.66816,13.138558 1.40946,42.942117 -2.98828,75.906249 l 1.67187,0.22461 c 0.0395,-0.29623 0.0687,-0.58514 0.10742,-0.88086 0.0957,0.35437 0.16523,0.7099 0.17578,1.06641 -3.7e-4,7.0988 -16.587326,14.10341 -36.431636,14.10351 -19.845069,3e-4 -35.43322,-7.00441 -35.433594,-14.10351 0.0054,-0.32757 0.06097,-0.65417 0.138672,-0.98047 0.0517,0.39777 0.09134,0.78685 0.144531,1.18555 l 1.671875,-0.22461 C 28.142478,71.835066 29.021322,41.468112 29.699219,28.828125 Z m 72.042971,76.876955 c -0.0116,0.0261 -0.0113,0.0212 -0.0234,0.0488 0.006,-0.008 0.0165,-0.0262 0.0234,-0.0352 z m -0.002,0.125 c -0.0384,0.0122 -0.066,0.0212 -0.10351,0.0332 0.001,0.01 0.003,0.0117 0.004,0.0215 l 0.0996,0 z m -70.824214,0.2168 0,0.0293 0.0098,0 c -0.0065,-0.007 -0.0081,-0.0179 -0.0098,-0.0293 z m 72.740234,3.54101 c -1.26468,7.0057 -17.848114,13.32627 -37.458984,13.32617 -19.540595,-3e-4 -34.987107,-6.28175 -36.351563,-13.25195 4.401272,6.371 19.04143,11.31572 36.371094,11.32422 17.41131,0 33.106499,-4.98864 37.439453,-11.39844 z"
       id="path9617"
       inkscape:connector-curvature="0"
       sodipodi:nodetypes="cccccccccccccccscscscccccscccccccccccccccccccccccccccccccccccccc" />
    <path
       style="fill:#454545;fill-opacity:1;stroke:none;stroke-width:2;stroke-linecap:round;stroke-miterlimit:4;stroke-dasharray:none;stroke-opacity:1"
       d="m 66.531907,50.500113 c -3.838449,0.0056 -7.591952,1.13047 -10.800863,3.236797 L 66.84758,69.830487 47.00727,72.945263 c 0.843481,6.055674 4.446043,11.378446 9.754451,14.412165 L 66.84286,69.843076 76.390297,86.902855 c 6.084259,-3.031013 9.11983,-8.007492 9.781115,-14.772693 L 66.844433,69.841502 78.040869,54.226285 C 74.689183,51.810106 70.663696,50.506803 66.531907,50.500113 Z"
       id="path9706"
       inkscape:connector-curvature="0"
       sodipodi:nodetypes="ccccccccccc" />
    <path
       style="fill:#ffffff;fill-opacity:1;stroke:none;stroke-width:0.133;stroke-linecap:round;stroke-linejoin:round;stroke-miterlimit:4;stroke-dasharray:none;stroke-opacity:1"
       d="m 61.281284,34.705692 c -13.550957,-0.701724 -24.498547,-3.99918 -28.900581,-8.704969 -2.855568,-3.052611 -2.346871,-6.191098 1.502609,-9.270588 1.393906,-1.115092 5.058255,-2.968844 7.542958,-3.815897 15.771637,-5.3766597 40.750049,-4.6437076 53.740115,1.576919 8.039455,3.849902 9.296455,9.092959 3.191756,13.313134 -7.133091,4.931103 -21.931685,7.685678 -37.076857,6.901401 z"
       id="path4749"
       inkscape:connector-curvature="0" />
    <path
       style="fill:#ffffff;fill-opacity:1;stroke:none;stroke-width:0.133;stroke-linecap:round;stroke-linejoin:round;stroke-miterlimit:4;stroke-dasharray:none;stroke-opacity:1"
       d="m 61.731151,38.419903 c -13.705108,-0.65366 -25.606455,-4.166342 -30.05593,-8.871006 -0.778838,-0.823506 -1.651047,-2.162724 -1.651047,-2.53507 0,-0.06363 0.498739,0.350831 1.108308,0.921035 5.095868,4.766779 15.90832,8.038065 29.47406,8.917319 3.905372,0.253124 11.68282,0.119532 15.291184,-0.262654 12.31608,-1.304478 21.603241,-4.443645 26.154114,-8.84039 0.63684,-0.615271 1.15788,-1.064536 1.15788,-0.998368 0,0.23315 -1.26702,2.227126 -1.73544,2.731142 -1.563251,1.682069 -5.321804,3.845987 -8.943409,5.149003 -7.978512,2.870588 -19.734083,4.316761 -30.79972,3.788989 z"
       id="path4751"
       inkscape:connector-curvature="0" />
    <path
       style="fill:#ffffff;fill-opacity:1;stroke:none;stroke-width:0.133;stroke-linecap:round;stroke-linejoin:round;stroke-miterlimit:4;stroke-dasharray:none;stroke-opacity:1"
       d="m 60.871707,119.46229 c -0.486136,-0.0367 -2.077126,-0.19318 -3.535534,-0.34768 -14.573204,-1.54384 -25.945673,-7.16164 -26.512167,-13.09655 -0.04492,-0.47064 -0.03856,-0.7165 0.01415,-0.54635 0.06873,0.2219 0.279585,0.30859 0.745777,0.30665 1.183669,-0.005 1.167142,0.094 0.666984,-3.99355 -2.046423,-16.724531 -2.945083,-32.202565 -2.956985,-50.929558 -0.0055,-8.627137 0.284804,-21.376519 0.491983,-21.607825 0.03829,-0.04275 0.199265,0.116352 0.357724,0.353554 0.15846,0.237202 0.786469,0.925971 1.395576,1.530597 5.217162,5.178785 16.879802,8.281816 32.514474,8.650994 13.104027,0.309422 24.80459,-1.548831 32.357321,-5.138908 2.584085,-1.228305 5.268262,-2.99612 6.312242,-4.157276 l 0.78971,-0.878347 0.12912,2.598593 c 0.46395,9.336957 0.38511,28.629909 -0.16196,39.633311 -0.52704,10.600752 -1.56075,22.62028 -2.66718,31.013075 -0.14017,1.06331 -0.25487,2.03292 -0.25487,2.15468 0,0.33576 1.58432,0.53084 1.80181,0.22185 0.11553,-0.16414 0.13949,0.0707 0.0732,0.71759 -0.60611,5.91587 -11.781393,11.30818 -27.33085,13.18773 -2.267228,0.27405 -11.979118,0.49751 -14.230523,0.32742 z M 72.628706,97.066064 c 5.835336,-1.380702 10.557756,-4.178679 14.600339,-8.65053 5.672069,-6.274367 8.053166,-15.357769 6.267446,-23.909046 C 91.599199,55.42094 84.987482,47.759705 76.252628,44.52541 73.120445,43.365642 71.19007,43.007563 67.500833,42.901979 c -2.783957,-0.07968 -3.58588,-0.03969 -5.391689,0.268834 -11.095441,1.895676 -19.690227,10.050959 -22.296262,21.156123 -0.464678,1.980148 -0.497807,2.374252 -0.497807,5.922019 0,3.547767 0.03313,3.941871 0.497807,5.922019 2.57702,10.98152 11.077723,19.135683 22.031096,21.132975 2.75603,0.502548 8.159086,0.38337 10.784728,-0.237885 z"
       id="path4753"
       inkscape:connector-curvature="0" />
    <path
       style="fill:#ffffff;fill-opacity:1;stroke:none;stroke-width:0.133;stroke-linecap:round;stroke-linejoin:round;stroke-miterlimit:4;stroke-dasharray:none;stroke-opacity:1"
       d="M 64.928735,94.800851 C 61.837973,94.574881 59.182277,93.78447 56.010348,92.146484 49.375961,88.720482 44.335772,82.424844 42.561704,75.347941 42.040129,73.267337 41.902876,68.984098 42.287082,66.777823 44.04653,56.674298 52.620808,48.071017 62.711913,46.283905 c 1.951069,-0.345531 5.681831,-0.345601 7.632465,-1.45e-4 4.757,0.842461 9.151727,3.234824 12.990433,7.071619 4.990746,4.988257 7.559184,10.878471 7.559184,17.335518 0,6.381361 -2.446945,12.048282 -7.294388,16.893205 -5.273512,5.270768 -11.638286,7.730909 -18.670872,7.216749 z M 61.769377,78.822625 c 2.68224,-4.666905 4.930938,-8.542018 4.997104,-8.611361 0.06617,-0.06934 2.227316,3.647952 4.802551,8.260659 2.575237,4.612706 4.783121,8.388381 4.906412,8.390389 0.346426,0.0056 2.453364,-1.325056 3.716366,-2.347181 3.092473,-2.502684 5.404596,-6.957109 5.947084,-11.457373 l 0.119569,-0.991896 -0.672563,-0.08801 c -0.369909,-0.04841 -4.669891,-0.556649 -9.555516,-1.129425 -4.885623,-0.572774 -8.882986,-1.097366 -8.883029,-1.165757 -4e-5,-0.06839 2.470865,-3.56817 5.490902,-7.777285 l 5.490976,-7.652938 -0.497035,-0.400404 C 77.358829,53.631816 76.458992,53.103487 75.632561,52.677974 70.801446,50.19053 65.406313,49.777497 60.251169,51.500427 c -1.462208,0.488693 -4.056236,1.717809 -4.470235,2.118111 -0.07756,0.075 2.326851,3.706291 5.343144,8.06954 3.016293,4.363251 5.426467,7.984164 5.355938,8.046478 -0.07053,0.06231 -4.344356,0.76583 -9.497397,1.563372 -5.15304,0.797543 -9.508376,1.489772 -9.678524,1.53829 -0.406599,0.115941 -0.39187,0.400892 0.126311,2.443623 0.861442,3.395902 2.924616,6.867547 5.542988,9.327025 1.257843,1.181513 3.532204,2.830835 3.786166,2.745655 0.07316,-0.02454 2.327576,-3.862992 5.009817,-8.529896 z"
       id="path4755"
       inkscape:connector-curvature="0" />
    <path
       style="fill:#ffffff;fill-opacity:1;stroke:none;stroke-width:0.133;stroke-linecap:round;stroke-linejoin:round;stroke-miterlimit:4;stroke-dasharray:none;stroke-opacity:1"
       d="m 58.927163,122.56104 c -13.453062,-1.22551 -24.540675,-5.38545 -27.893634,-10.46536 -1.101028,-1.66811 -1.007838,-1.92448 0.247398,-0.6806 4.904933,4.86056 15.550304,8.37319 28.501052,9.40442 3.510881,0.27956 12.996621,0.12258 16.204135,-0.26816 12.395983,-1.51009 21.943427,-4.90158 26.430676,-9.38882 0.53334,-0.53335 0.96897,-0.90833 0.96805,-0.83329 -8.8e-4,0.075 -0.25179,0.57265 -0.5575,1.10581 -2.887245,5.03537 -13.329626,9.25581 -26.929614,10.88398 -2.884817,0.34537 -14.082965,0.50507 -16.970563,0.24202 z"
       id="path4757"
       inkscape:connector-curvature="0" />
  </g>
</svg>
