<?xml version="1.0" encoding="UTF-8" standalone="no"?>
<!-- Created with Inkscape (http://www.inkscape.org/) -->

<svg
   xmlns:dc="http://purl.org/dc/elements/1.1/"
   xmlns:cc="http://creativecommons.org/ns#"
   xmlns:rdf="http://www.w3.org/1999/02/22-rdf-syntax-ns#"
   xmlns:svg="http://www.w3.org/2000/svg"
   xmlns="http://www.w3.org/2000/svg"
   xmlns:sodipodi="http://sodipodi.sourceforge.net/DTD/sodipodi-0.dtd"
   xmlns:inkscape="http://www.inkscape.org/namespaces/inkscape"
   width="130"
   height="130"
   viewBox="0 0 130 130"
   id="svg4136"
   version="1.1"
   inkscape:version="0.91 r13725"
   sodipodi:docname="waste.svg">
  <defs
     id="defs4138" />
  <sodipodi:namedview
     id="base"
     pagecolor="#ffffff"
     bordercolor="#666666"
     borderopacity="1.0"
     inkscape:pageopacity="0.0"
     inkscape:pageshadow="2"
     inkscape:zoom="4"
     inkscape:cx="35.542333"
     inkscape:cy="64.092076"
     inkscape:document-units="px"
     inkscape:current-layer="layer1"
     showgrid="false"
     units="px"
     inkscape:window-width="1317"
     inkscape:window-height="744"
     inkscape:window-x="49"
     inkscape:window-y="24"
     inkscape:window-maximized="1"
     showguides="false" />
  <metadata
     id="metadata4141">
    <rdf:RDF>
      <cc:Work
         rdf:about="">
        <dc:format>image/svg+xml</dc:format>
        <dc:type
           rdf:resource="http://purl.org/dc/dcmitype/StillImage" />
        <dc:title />
      </cc:Work>
    </rdf:RDF>
  </metadata>
  <g
     inkscape:label="Layer 1"
     inkscape:groupmode="layer"
     id="layer1"
     transform="translate(0,-922.36216)">
    <path
       style="display:inline;fill:#454545;fill-opacity:1;stroke:none;stroke-width:1;stroke-miterlimit:4;stroke-dasharray:none;stroke-opacity:1"
       d="m 65.380859,7.6484375 c -22.353604,-6.3e-5 -40.475671,6.5133885 -40.478515,14.5488285 0.01231,0.366444 0.06313,0.732591 0.152344,1.097656 l -0.01758,0.002 0.335938,5.925781 c -0.05416,0.290462 -0.08981,0.583566 -0.08984,0.878906 1.77e-4,1.564619 0.747022,3.066258 2.103516,4.470704 l -0.01758,0.002 6.066406,70.792967 c 0.01075,0.19622 0.02235,0.39205 0.05078,0.58789 l 0.0957,1.11133 c -0.0848,0.43542 -0.146521,0.87443 -0.146484,1.32031 -6.98e-4,8.3896 13.999713,15.77304 31.804687,15.77344 17.805614,10e-5 32.672588,-7.38354 32.671875,-15.77344 7.5e-5,-0.6095 -0.08178,-1.20883 -0.232421,-1.79883 0.128371,-0.5 0.198636,-1.00256 0.210937,-1.50586 -1.25e-4,-0.0241 -0.0035,-0.0482 -0.0039,-0.0723 L 104.21484,33.0625 c 0.46354,-0.751008 0.75824,-1.523833 0.86133,-2.314453 l -9.2e-4,-0.06429 0.43644,-6.724725 c 0.21502,-0.584167 0.33112,-1.17249 0.34766,-1.761718 C 105.85654,14.161825 87.734465,7.6483733 65.380859,7.6484375 Z m -0.207031,0.9006696 c 21.633862,-9e-5 38.665812,5.7606169 38.662892,13.2744769 -0.003,7.512334 -17.121811,13.399622 -38.75128,13.399532 C 43.455972,35.223205 26.455581,29.399052 26.452288,21.886719 26.449368,14.37286 43.539967,8.5490176 65.173828,8.5491071 Z M 26.469731,26.276799 c 4.520058,6.461037 20.199124,11.35737 38.732557,11.366058 18.191586,5.4e-5 33.800071,-4.846399 38.659212,-11.148123 l -0.0417,1.339504 c -0.032,0.711328 -0.0329,0.861626 -0.0678,1.630606 3e-5,1.155121 -0.31594,2.286009 -1.12576,3.332269 -0.18333,0.220031 -0.24263,0.387504 -0.36384,0.530963 -4.655819,5.345103 -19.477268,9.44441 -37.070386,9.444476 -16.259896,-6.1e-5 -30.080819,-3.628019 -35.82087,-8.25888 l -0.121128,-0.09958 c -1.733288,-1.434773 -2.695354,-3.021311 -2.695312,-4.726562 0.03161,-0.70476 0.03144,-0.692663 0.03292,-1.100167 z m 75.520499,9.256404 -6.162105,70.056637 c -1.109603,6.78097 -14.622666,13.21084 -30.677734,13.21094 -15.26775,2.8e-4 -27.537158,-5.81344 -29.603516,-12.21484 L 29.529297,36.367188 c 6.56536,4.565957 20.069672,8.14312 35.673828,8.143113 16.539544,8e-6 30.730195,-3.961775 36.787105,-8.977098 z m -5.140621,73.164067 c -1.068118,7.0058 -15.073839,13.32637 -31.636718,13.32617 -16.503514,-2e-4 -29.548785,-6.28176 -30.701172,-13.25196 3.717208,6.371 16.082532,11.31572 30.71875,11.32422 14.705175,0 27.959637,-4.98853 31.61914,-11.39843 z"
       transform="translate(0,922.36216)"
       id="path6528"
       inkscape:connector-curvature="0"
       sodipodi:nodetypes="scccccccccccccccccccccsscscscccccccsccccccccccsccsccc" />
    <path
       style="fill:#efefef;fill-opacity:1;stroke:#454545;stroke-width:1.5;stroke-miterlimit:4;stroke-dasharray:none;stroke-opacity:1"
       d="m 71.607142,992.36214 c 2e-6,15.97696 -0.451685,43.64966 -5.90278,43.21446 -5.775837,-0.4612 -6.240082,-27.4161 -6.240078,-43.39303 10e-7,-15.9768 2.642764,-22.14284 5.902777,-22.14284 3.260014,0 6.240078,6.34461 6.240081,22.32141 z"
       id="path6644"
       inkscape:connector-curvature="0"
       sodipodi:nodetypes="sssss" />
    <path
       style="fill:#efefef;fill-opacity:1;stroke:#454545;stroke-width:1.5;stroke-miterlimit:4;stroke-dasharray:none;stroke-opacity:1"
       d="m 93.560926,985.46994 c -0.934177,15.94796 -3.650251,47.25536 -8.626952,46.48796 -5.273179,-0.8131 -2.288725,-24.5835 -1.354548,-40.5314 0.934175,-15.94791 3.742555,-24.98191 6.734077,-24.7828 2.991522,0.1991 4.181595,2.87833 3.247423,18.82624 z"
       id="path6644-3"
       inkscape:connector-curvature="0"
       sodipodi:nodetypes="sssss" />
    <path
       style="fill:#efefef;fill-opacity:1;stroke:#454545;stroke-width:1.5;stroke-miterlimit:4;stroke-dasharray:none;stroke-opacity:1"
       d="m 38.071025,985.83844 c 0.934177,15.94796 3.650251,47.25536 8.626952,46.48796 5.273179,-0.8131 2.288725,-24.5835 1.354548,-40.5314 -0.934175,-15.94791 -3.742555,-24.98191 -6.734077,-24.7828 -2.991522,0.1991 -4.181595,2.87833 -3.247423,18.82624 z"
       id="path6644-3-6"
       inkscape:connector-curvature="0"
       sodipodi:nodetypes="sssss" />
    <path
       style="color:#000000;font-style:normal;font-variant:normal;font-weight:normal;font-stretch:normal;font-size:medium;line-height:normal;font-family:sans-serif;text-indent:0;text-align:start;text-decoration:none;text-decoration-line:none;text-decoration-style:solid;text-decoration-color:#000000;letter-spacing:normal;word-spacing:normal;text-transform:none;direction:ltr;block-progression:tb;writing-mode:lr-tb;baseline-shift:baseline;text-anchor:start;white-space:normal;clip-rule:nonzero;display:inline;overflow:visible;visibility:visible;opacity:1;isolation:auto;mix-blend-mode:normal;color-interpolation:sRGB;color-interpolation-filters:linearRGB;solid-color:#000000;solid-opacity:1;fill:#454545;fill-opacity:1;fill-rule:evenodd;stroke:none;stroke-width:1px;stroke-linecap:square;stroke-linejoin:round;stroke-miterlimit:4;stroke-dasharray:none;stroke-dashoffset:0;stroke-opacity:1;color-rendering:auto;image-rendering:auto;shape-rendering:auto;text-rendering:auto;enable-background:accumulate"
       d="m 70.766091,932.89992 a 0.55849539,0.55849539 0 0 0 -0.207234,0.048 l -15.505424,6.80598 a 0.55849539,0.55849539 0 0 0 -0.32721,0.59553 l -2.643862,6.54638 a 0.55849539,0.55849539 0 0 0 0.423192,0.75914 l 9.787962,1.66005 a 0.55849539,0.55849539 0 0 0 0.647877,-0.62607 l -0.996902,-7.23571 8.363505,-3.86109 -0.06108,0.38174 a 0.55849539,0.55849539 0 0 0 0.486453,0.64134 l 7.133192,0.83983 a 0.55849539,0.55849539 0 0 0 0.615157,-0.6566 l -0.91401,-4.8558 a 0.55849539,0.55849539 0 0 0 -0.516992,-0.61734 l -6.230091,-0.42319 a 0.55849539,0.55849539 0 0 0 -0.05454,-0.002 z m 0.115613,1.12342 3.917803,0.26613 -13.747211,6.3479 a 0.55849539,0.55849539 0 0 0 -0.196326,-0.072 l -0.01964,-0.002 -3.581867,-0.55627 13.627234,-5.98359 z m 5.713099,0.79622 0.647877,3.43789 -5.802536,-0.68278 0.07853,-0.50172 5.076128,-2.25339 z m -20.958934,6.26063 5.04777,0.58898 0.0022,0 0.01963,0.002 a 0.55849539,0.55849539 0 0 0 0.235593,-0.024 0.55849539,0.55849539 0 0 0 0.224684,0.0764 l -0.318486,-0.0349 0.881288,6.40024 -8.352598,-1.41791 2.259936,-5.59094 z"
       id="path6695"
       inkscape:connector-curvature="0" />
    <path
       style="fill:#ffffff;fill-opacity:1;stroke:none;stroke-width:0.133;stroke-linecap:round;stroke-linejoin:round;stroke-miterlimit:4;stroke-dasharray:none;stroke-opacity:1"
       d="M 56.942333,34.836149 C 41.776186,33.698076 29.851654,29.470623 27.211847,24.296175 c -0.692549,-1.357508 -0.69656,-3.46113 -0.0092,-4.808527 2.379554,-4.664312 11.989924,-8.492715 25.489656,-10.1540999 5.188372,-0.6385226 19.811627,-0.6385226 25,0 11.062442,1.3614329 19.445487,4.1289709 23.353257,7.7097279 2.042,1.871121 2.74678,3.25494 2.59429,5.093795 -0.50663,6.109234 -12.273992,11.126402 -29.572547,12.608638 -2.726698,0.233637 -14.395495,0.295265 -17.125,0.09044 z m 5.995515,-8.765725 c -0.0025,-0.515625 -0.169198,-2.00625 -0.370515,-3.3125 -0.604108,-3.919765 -0.911433,-3.422322 3.3125,-5.36169 4.627465,-2.124644 4.3125,-2.011339 4.3125,-1.551386 0,0.444729 0.264292,0.50226 4.746177,1.033151 2.468145,0.292359 3.183065,0.305398 3.41697,0.06232 0.228145,-0.237096 0.181358,-0.90761 -0.204597,-2.931984 -0.275213,-1.443525 -0.60788,-2.754111 -0.73926,-2.912414 -0.142978,-0.172278 -1.564723,-0.358498 -3.54158,-0.463876 l -3.30271,-0.176053 -7.25,3.177503 c -3.9875,1.747628 -7.53541,3.324808 -7.884243,3.504846 -0.496115,0.256054 -0.94529,1.108526 -2.0625,3.914357 -1.26208,3.169668 -1.58598,4.170254 -1.365757,4.219085 1.524425,0.338021 9.55198,1.695717 10.125,1.712436 0.77719,0.02268 0.812305,-0.01703 0.808015,-0.913794 z"
       id="path5309"
       inkscape:connector-curvature="0"
       transform="translate(0,922.36216)" />
    <path
       style="fill:#ffffff;fill-opacity:1;stroke:none;stroke-width:0.133;stroke-linecap:round;stroke-linejoin:round;stroke-miterlimit:4;stroke-dasharray:none;stroke-opacity:1"
       d="m 57.227303,24.87049 c -1.837016,-0.321361 -3.398093,-0.642356 -3.469061,-0.713324 -0.25801,-0.25801 1.993429,-5.429966 2.310748,-5.3082 0.170708,0.06551 1.227017,0.199063 2.347353,0.296791 1.120337,0.09773 2.114203,0.302645 2.208593,0.455371 0.09439,0.152725 0.353627,1.544233 0.576083,3.092239 0.476424,3.315292 0.974032,3.042661 -3.973716,2.177123 z"
       id="path5311"
       inkscape:connector-curvature="0"
       transform="translate(0,922.36216)" />
    <path
       style="fill:#ffffff;fill-opacity:1;stroke:none;stroke-width:0.133;stroke-linecap:round;stroke-linejoin:round;stroke-miterlimit:4;stroke-dasharray:none;stroke-opacity:1"
       d="m 59.442333,17.883454 c -0.89375,-0.14252 -1.504409,-0.335825 -1.35702,-0.429568 0.147389,-0.09374 3.128639,-1.423161 6.625,-2.954263 l 6.35702,-2.783822 1.519393,0.208561 1.519394,0.208562 -6.519394,3.004828 -6.519393,3.004828 -1.625,-0.259126 z"
       id="path5313"
       inkscape:connector-curvature="0"
       transform="translate(0,922.36216)" />
    <path
       style="fill:#ffffff;fill-opacity:1;stroke:none;stroke-width:0.133;stroke-linecap:round;stroke-linejoin:round;stroke-miterlimit:4;stroke-dasharray:none;stroke-opacity:1"
       d="m 73.8719,15.42974 c -1.25115,-0.142027 -2.15956,-0.356838 -2.112029,-0.499429 0.124084,-0.372253 4.480402,-2.227985 4.68668,-1.996462 0.09755,0.109491 0.289073,0.7897 0.425603,1.511575 0.28566,1.510374 0.632244,1.396667 -3.000254,0.984316 z"
       id="path5315"
       inkscape:connector-curvature="0"
       transform="translate(0,922.36216)" />
    <path
       style="fill:#ffffff;fill-opacity:1;stroke:none;stroke-width:0.133;stroke-linecap:round;stroke-linejoin:round;stroke-miterlimit:4;stroke-dasharray:none;stroke-opacity:1"
       d="M 59.942333,42.510955 C 52.919783,42.147357 46.894865,41.231972 41.171597,39.659059 35.482465,38.095527 31.569862,36.251595 29.045051,33.944061 27.202949,32.260483 26.704899,31.166058 26.697823,28.786214 l -0.0055,-1.846711 1.226621,1.147361 c 4.810463,4.499624 14.566127,7.764137 27.523379,9.210077 3.750965,0.418581 15.749162,0.418572 19.5,-1.6e-5 12.82331,-1.43106 22.762772,-4.757071 27.523377,-9.210061 l 1.22662,-1.147361 0,1.423506 c 0,2.605932 -0.40696,3.592903 -2.22987,5.40795 -2.650292,2.638864 -6.97005,4.635574 -13.67367,6.320343 -7.863512,1.976278 -18.522095,2.90243 -27.846457,2.419653 z"
       id="path5317"
       inkscape:connector-curvature="0"
       transform="translate(0,922.36216)" />
    <path
       style="fill:#ffffff;fill-opacity:1;stroke:none;stroke-width:0.133;stroke-linecap:round;stroke-linejoin:round;stroke-miterlimit:4;stroke-dasharray:none;stroke-opacity:1"
       d="m 60.567333,118.50828 c -9.98755,-0.84046 -18.964921,-4.2476 -22.873419,-8.68105 -2.091407,-2.37231 -1.706162,0.54736 -5.012519,-37.988526 -1.647301,-19.199446 -2.952246,-34.950929 -2.899878,-35.003297 0.05237,-0.05237 0.765844,0.304277 1.585502,0.792545 4.541696,2.705474 12.813368,5.080576 21.847047,6.273092 4.165592,0.549891 15.427482,0.760176 20.058774,0.374543 11.431188,-0.951839 21.656185,-3.773648 27.12074,-7.484553 l 1.51682,-1.030057 -0.11391,0.810974 c -0.0627,0.446035 -1.4653,16.279723 -3.116982,35.185973 -3.438843,39.363206 -2.862588,35.642716 -5.97542,38.579206 -4.016285,3.78876 -10.966908,6.55712 -19.511755,7.77132 -3.363148,0.47789 -9.418443,0.66966 -12.625,0.39983 z m 6.95414,-5.24363 c 2.278967,-2.00096 3.64179,-8.45932 4.459145,-21.131726 0.170442,-2.64253 0.313102,-10.351435 0.321542,-17.375 0.01285,-10.697698 -0.05081,-13.083248 -0.41703,-15.626797 -1.035975,-7.195212 -2.721232,-11.019853 -5.287545,-11.999938 -2.825645,-1.079123 -5.15813,1.274129 -6.546622,6.604907 -1.114833,4.280132 -1.233928,6.296769 -1.226725,20.771828 0.0044,8.756502 0.123282,15.396715 0.322372,18 1.173063,15.338876 3.09854,21.494846 6.724523,21.499066 0.535925,5e-4 1.08592,-0.24677 1.65034,-0.74234 z m -19.204847,-3.33102 c 1.894036,-1.89404 2.584538,-7.50177 2.123349,-17.244251 -0.37002,-7.81655 -1.925563,-29.105995 -2.379921,-32.572039 -1.269179,-9.681844 -3.235437,-15.156148 -5.793042,-16.128548 -0.857908,-0.326176 -2.216464,-0.09197 -3.094914,0.533541 -2.545618,1.812639 -2.849649,9.086064 -1.222054,29.235591 1.428215,17.681225 3.388869,29.641616 5.638739,34.397446 1.254739,2.6523 3.143422,3.36268 4.727843,1.77826 z m 38.047429,0.0866 c 1.676043,-1.02196 3.352823,-5.95495 4.677973,-13.762336 1.675415,-9.87105 3.270102,-27.25152 3.566842,-38.875 0.225913,-8.849029 -0.330487,-11.946834 -2.391007,-13.312139 -1.11694,-0.740086 -2.71506,-0.754037 -3.633338,-0.03172 -2.896565,2.278437 -4.954475,11.122915 -5.896947,25.343858 -0.1458,2.2 -0.48273,6.98125 -0.748728,10.625 -0.84116,11.522515 -1.05888,17.644042 -0.767097,21.568146 0.403622,5.42816 1.215935,7.85459 2.870707,8.57496 1.048413,0.4564 1.39018,0.43715 2.321595,-0.13077 z"
       id="path5319"
       inkscape:connector-curvature="0"
       transform="translate(0,922.36216)" />
    <path
       style="fill:#ffffff;fill-opacity:1;stroke:none;stroke-width:0.133;stroke-linecap:round;stroke-linejoin:round;stroke-miterlimit:4;stroke-dasharray:none;stroke-opacity:1"
       d="m 61.192333,121.74462 c -9.16333,-0.53909 -17.990559,-3.3784 -22.776664,-7.32621 -1.468565,-1.21134 -3.223336,-3.37558 -3.223336,-3.9755 0,-0.1261 0.718647,0.42756 1.596994,1.23037 7.408834,6.77165 22.921118,9.99683 37.670398,7.83209 8.902138,-1.30656 16.50548,-4.3736 20.508645,-8.27281 1.386145,-1.35014 1.57496,-1.19988 0.484265,0.38539 -4.55013,6.61339 -19.394927,11.00122 -34.260302,10.12667 z"
       id="path5321"
       inkscape:connector-curvature="0"
       transform="translate(0,922.36216)" />
  </g>
</svg>
