<svg xmlns="http://www.w3.org/2000/svg" width="1000" height="1000"><path d="M-208,-209L151,-196L450,-208Z" fill="#ffefb5" stroke="#ffefb5" stroke-width="1.51"/><path d="M-208,-209L450,-208L850,-211Z" fill="#ffda92" stroke="#ffda92" stroke-width="1.51"/><path d="M556,-199L736,-192L850,-211Z" fill="#fcb579" stroke="#fcb579" stroke-width="1.51"/><path d="M450,-208L556,-199L850,-211Z" fill="#ffbe7e" stroke="#ffbe7e" stroke-width="1.51"/><path d="M739,1194L582,1200L1056,1189Z" fill="#a64208" stroke="#a64208" stroke-width="1.51"/><path d="M868,1183L739,1194L1056,1189Z" fill="#9e3a05" stroke="#9e3a05" stroke-width="1.51"/><path d="M1153,94L1039,130L1159,294Z" fill="#c68441" stroke="#c68441" stroke-width="1.51"/><path d="M1036,996L1149,1171L1169,991Z" fill="#933305" stroke="#933305" stroke-width="1.51"/><path d="M850,-211L998,-182L1171,-192Z" fill="#dc9c6d" stroke="#dc9c6d" stroke-width="1.51"/><path d="M1171,-192L999,-44L1174,-26Z" fill="#ca925f" stroke="#ca925f" stroke-width="1.51"/><path d="M1153,94L1159,294L1174,-26Z" fill="#bf8549" stroke="#bf8549" stroke-width="1.51"/><path d="M1159,294L1052,443L1174,453Z" fill="#c26f21" stroke="#c26f21" stroke-width="1.51"/><path d="M997,608L1170,704L1192,550Z" fill="#bd560f" stroke="#bd560f" stroke-width="1.51"/><path d="M1159,294L1174,453L1192,550Z" fill="#bb681d" stroke="#bb681d" stroke-width="1.51"/><path d="M1174,-26L1159,294L1192,550Z" fill="#bc7930" stroke="#bc7930" stroke-width="1.51"/><path d="M1169,991L1149,1171L1208,860Z" fill="#913305" stroke="#913305" stroke-width="1.51"/><path d="M1170,704L1024,839L1208,860Z" fill="#ae4307" stroke="#ae4307" stroke-width="1.51"/><path d="M1024,839L1169,991L1208,860Z" fill="#a53b05" stroke="#a53b05" stroke-width="1.51"/><path d="M1192,550L1170,704L1208,860Z" fill="#ae4a0c" stroke="#ae4a0c" stroke-width="1.51"/><path d="M1043,293L1052,443L1159,294Z" fill="#c97726" stroke="#c97726" stroke-width="1.51"/><path d="M1039,130L1043,293L1159,294Z" fill="#cb8136" stroke="#cb8136" stroke-width="1.51"/><path d="M1024,839L1036,996L1169,991Z" fill="#a73b04" stroke="#a73b04" stroke-width="1.51"/><path d="M997,608L1019,707L1170,704Z" fill="#c2530c" stroke="#c2530c" stroke-width="1.51"/><path d="M1019,707L1024,839L1170,704Z" fill="#bb4b08" stroke="#bb4b08" stroke-width="1.51"/><path d="M998,-182L999,-44L1171,-192Z" fill="#d49766" stroke="#d49766" stroke-width="1.51"/><path d="M1174,453L1052,443L1192,550Z" fill="#c06418" stroke="#c06418" stroke-width="1.51"/><path d="M1052,443L997,608L1192,550Z" fill="#c76213" stroke="#c76213" stroke-width="1.51"/><path d="M1036,996L1056,1189L1149,1171Z" fill="#8e3105" stroke="#8e3105" stroke-width="1.51"/><path d="M999,-44L1039,130L1153,94Z" fill="#d08f51" stroke="#d08f51" stroke-width="1.51"/><path d="M999,-44L1153,94L1174,-26Z" fill="#ca8e56" stroke="#ca8e56" stroke-width="1.51"/><path d="M1024,839L885,852L1036,996Z" fill="#ba4303" stroke="#ba4303" stroke-width="1.51"/><path d="M999,-44L870,99L1039,130Z" fill="#de9652" stroke="#de9652" stroke-width="1.51"/><path d="M909,269L884,457L1043,293Z" fill="#dd8227" stroke="#dd8227" stroke-width="1.51"/><path d="M1039,130L909,269L1043,293Z" fill="#d78739" stroke="#d78739" stroke-width="1.51"/><path d="M882,539L997,608L1052,443Z" fill="#d56914" stroke="#d56914" stroke-width="1.51"/><path d="M884,457L882,539L1052,443Z" fill="#dc7218" stroke="#dc7218" stroke-width="1.51"/><path d="M1043,293L884,457L1052,443Z" fill="#d67821" stroke="#d67821" stroke-width="1.51"/><path d="M1036,996L881,1016L1056,1189Z" fill="#a23804" stroke="#a23804" stroke-width="1.51"/><path d="M881,1016L868,1183L1056,1189Z" fill="#a03905" stroke="#a03905" stroke-width="1.51"/><path d="M885,852L881,1016L1036,996Z" fill="#b94303" stroke="#b94303" stroke-width="1.51"/><path d="M1019,707L875,729L1024,839Z" fill="#c85107" stroke="#c85107" stroke-width="1.51"/><path d="M870,99L909,269L1039,130Z" fill="#e09145" stroke="#e09145" stroke-width="1.51"/><path d="M875,729L885,852L1024,839Z" fill="#ca4f05" stroke="#ca4f05" stroke-width="1.51"/><path d="M880,-42L870,99L999,-44Z" fill="#e79d5a" stroke="#e79d5a" stroke-width="1.51"/><path d="M998,-182L880,-42L999,-44Z" fill="#e29d63" stroke="#e29d63" stroke-width="1.51"/><path d="M997,608L875,729L1019,707Z" fill="#d0590b" stroke="#d0590b" stroke-width="1.51"/><path d="M882,539L875,729L997,608Z" fill="#d9620f" stroke="#d9620f" stroke-width="1.51"/><path d="M850,-211L880,-42L998,-182Z" fill="#e9a26a" stroke="#e9a26a" stroke-width="1.51"/><path d="M718,140L734,265L870,99Z" fill="#f29f4a" stroke="#f29f4a" stroke-width="1.51"/><path d="M850,-211L736,-192L880,-42Z" fill="#f3aa6e" stroke="#f3aa6e" stroke-width="1.51"/><path d="M757,1043L868,1183L881,1016Z" fill="#b34305" stroke="#b34305" stroke-width="1.51"/><path d="M723,865L757,1043L881,1016Z" fill="#c64e06" stroke="#c64e06" stroke-width="1.51"/><path d="M727,571L875,729L882,539Z" fill="#e46b12" stroke="#e46b12" stroke-width="1.51"/><path d="M734,265L694,426L884,457Z" fill="#f08b28" stroke="#f08b28" stroke-width="1.51"/><path d="M723,865L881,1016L885,852Z" fill="#cb4e04" stroke="#cb4e04" stroke-width="1.51"/><path d="M734,265L884,457L909,269Z" fill="#ea8b2b" stroke="#ea8b2b" stroke-width="1.51"/><path d="M870,99L734,265L909,269Z" fill="#ec9640" stroke="#ec9640" stroke-width="1.51"/><path d="M757,1043L739,1194L868,1183Z" fill="#ae4508" stroke="#ae4508" stroke-width="1.51"/><path d="M727,571L735,746L875,729Z" fill="#e46810" stroke="#e46810" stroke-width="1.51"/><path d="M736,-192L720,-28L880,-42Z" fill="#f5ad69" stroke="#f5ad69" stroke-width="1.51"/><path d="M720,-28L870,99L880,-42Z" fill="#f1a45c" stroke="#f1a45c" stroke-width="1.51"/><path d="M727,571L882,539L884,457Z" fill="#e87517" stroke="#e87517" stroke-width="1.51"/><path d="M694,426L727,571L884,457Z" fill="#ee7f1d" stroke="#ee7f1d" stroke-width="1.51"/><path d="M875,729L735,746L885,852Z" fill="#d85a08" stroke="#d85a08" stroke-width="1.51"/><path d="M735,746L723,865L885,852Z" fill="#d85b09" stroke="#d85b09" stroke-width="1.51"/><path d="M720,-28L718,140L870,99Z" fill="#f4a658" stroke="#f4a658" stroke-width="1.51"/><path d="M151,-196L299,-179L450,-208Z" fill="#ffe198" stroke="#ffe198" stroke-width="1.51"/><path d="M388,1166L243,1208L582,1200Z" fill="#b96b20" stroke="#b96b20" stroke-width="1.51"/><path d="M597,-12L718,140L720,-28Z" fill="#fcb161" stroke="#fcb161" stroke-width="1.51"/><path d="M592,869L543,997L723,865Z" fill="#da630f" stroke="#da630f" stroke-width="1.51"/><path d="M727,571L585,712L735,746Z" fill="#ed7215" stroke="#ed7215" stroke-width="1.51"/><path d="M597,-12L720,-28L736,-192Z" fill="#fdb56d" stroke="#fdb56d" stroke-width="1.51"/><path d="M556,-199L597,-12L736,-192Z" fill="#ffbc76" stroke="#ffbc76" stroke-width="1.51"/><path d="M723,865L543,997L757,1043Z" fill="#cf590c" stroke="#cf590c" stroke-width="1.51"/><path d="M582,1200L739,1194L757,1043Z" fill="#b54d0c" stroke="#b54d0c" stroke-width="1.51"/><path d="M543,997L582,1200L757,1043Z" fill="#c2580e" stroke="#c2580e" stroke-width="1.51"/><path d="M575,240L606,440L694,426Z" fill="#f99b30" stroke="#f99b30" stroke-width="1.51"/><path d="M597,-12L543,94L718,140Z" fill="#fdb45f" stroke="#fdb45f" stroke-width="1.51"/><path d="M694,426L606,440L727,571Z" fill="#f68922" stroke="#f68922" stroke-width="1.51"/><path d="M606,440L587,565L727,571Z" fill="#f78820" stroke="#f78820" stroke-width="1.51"/><path d="M587,565L585,712L727,571Z" fill="#f27e1b" stroke="#f27e1b" stroke-width="1.51"/><path d="M718,140L575,240L734,265Z" fill="#f9a546" stroke="#f9a546" stroke-width="1.51"/><path d="M575,240L694,426L734,265Z" fill="#f79d34" stroke="#f79d34" stroke-width="1.51"/><path d="M592,869L723,865L735,746Z" fill="#e0630d" stroke="#e0630d" stroke-width="1.51"/><path d="M585,712L592,869L735,746Z" fill="#e76d13" stroke="#e76d13" stroke-width="1.51"/><path d="M543,94L575,240L718,140Z" fill="#fcb054" stroke="#fcb054" stroke-width="1.51"/><path d="M543,997L447,1002L582,1200Z" fill="#c96414" stroke="#c96414" stroke-width="1.51"/><path d="M447,1002L388,1166L582,1200Z" fill="#c26719" stroke="#c26719" stroke-width="1.51"/><path d="M445,560L585,712L587,565Z" fill="#f78921" stroke="#f78921" stroke-width="1.51"/><path d="M585,712L452,743L592,869Z" fill="#ec7818" stroke="#ec7818" stroke-width="1.51"/><path d="M556,-199L448,-32L597,-12Z" fill="#ffc575" stroke="#ffc575" stroke-width="1.51"/><path d="M575,240L435,281L606,440Z" fill="#fdaa3a" stroke="#fdaa3a" stroke-width="1.51"/><path d="M435,281L409,395L606,440Z" fill="#ffaa38" stroke="#ffaa38" stroke-width="1.51"/><path d="M445,560L587,565L606,440Z" fill="#fb9226" stroke="#fb9226" stroke-width="1.51"/><path d="M409,395L445,560L606,440Z" fill="#fe9f2f" stroke="#fe9f2f" stroke-width="1.51"/><path d="M543,94L437,152L575,240Z" fill="#ffb958" stroke="#ffb958" stroke-width="1.51"/><path d="M445,560L452,743L585,712Z" fill="#f68720" stroke="#f68720" stroke-width="1.51"/><path d="M390,906L543,997L592,869Z" fill="#de6f16" stroke="#de6f16" stroke-width="1.51"/><path d="M448,-32L543,94L597,-12Z" fill="#ffc16b" stroke="#ffc16b" stroke-width="1.51"/><path d="M450,-208L448,-32L556,-199Z" fill="#ffcc80" stroke="#ffcc80" stroke-width="1.51"/><path d="M452,743L390,906L592,869Z" fill="#e8791b" stroke="#e8791b" stroke-width="1.51"/><path d="M390,906L447,1002L543,997Z" fill="#d8721a" stroke="#d8721a" stroke-width="1.51"/><path d="M437,152L435,281L575,240Z" fill="#ffb84f" stroke="#ffb84f" stroke-width="1.51"/><path d="M448,-32L437,152L543,94Z" fill="#ffc468" stroke="#ffc468" stroke-width="1.51"/><path d="M279,-2L261,100L437,152Z" fill="#ffd475" stroke="#ffd475" stroke-width="1.51"/><path d="M256,309L435,281L437,152Z" fill="#ffc355" stroke="#ffc355" stroke-width="1.51"/><path d="M409,395L278,562L445,560Z" fill="#fea735" stroke="#fea735" stroke-width="1.51"/><path d="M278,562L307,743L445,560Z" fill="#f99f33" stroke="#f99f33" stroke-width="1.51"/><path d="M239,992L388,1166L447,1002Z" fill="#cd7824" stroke="#cd7824" stroke-width="1.51"/><path d="M279,-2L437,152L448,-32Z" fill="#ffcf74" stroke="#ffcf74" stroke-width="1.51"/><path d="M299,-179L279,-2L448,-32Z" fill="#ffda85" stroke="#ffda85" stroke-width="1.51"/><path d="M299,-179L448,-32L450,-208Z" fill="#ffd587" stroke="#ffd587" stroke-width="1.51"/><path d="M445,560L307,743L452,743Z" fill="#f7912a" stroke="#f7912a" stroke-width="1.51"/><path d="M307,743L390,906L452,743Z" fill="#ed8927" stroke="#ed8927" stroke-width="1.51"/><path d="M307,743L302,894L390,906Z" fill="#e98a2a" stroke="#e98a2a" stroke-width="1.51"/><path d="M261,100L256,309L437,152Z" fill="#ffce66" stroke="#ffce66" stroke-width="1.51"/><path d="M390,906L239,992L447,1002Z" fill="#da7e25" stroke="#da7e25" stroke-width="1.51"/><path d="M253,393L278,562L409,395Z" fill="#feb542" stroke="#feb542" stroke-width="1.51"/><path d="M256,309L409,395L435,281Z" fill="#ffbc48" stroke="#ffbc48" stroke-width="1.51"/><path d="M302,894L239,992L390,906Z" fill="#df862b" stroke="#df862b" stroke-width="1.51"/><path d="M256,309L253,393L409,395Z" fill="#ffbf4b" stroke="#ffbf4b" stroke-width="1.51"/><path d="M239,992L243,1208L388,1166Z" fill="#c37b2c" stroke="#c37b2c" stroke-width="1.51"/><path d="M91,1168L1,1193L243,1208Z" fill="#bc844a" stroke="#bc844a" stroke-width="1.51"/><path d="M239,992L109,1025L243,1208Z" fill="#cc853d" stroke="#cc853d" stroke-width="1.51"/><path d="M147,142L256,309L261,100Z" fill="#ffd677" stroke="#ffd677" stroke-width="1.51"/><path d="M253,393L139,407L278,562Z" fill="#ffbc52" stroke="#ffbc52" stroke-width="1.51"/><path d="M151,-196L92,-7L279,-2Z" fill="#ffe99f" stroke="#ffe99f" stroke-width="1.51"/><path d="M151,-196L279,-2L299,-179Z" fill="#ffe499" stroke="#ffe499" stroke-width="1.51"/><path d="M115,889L302,894L307,743Z" fill="#eb933a" stroke="#eb933a" stroke-width="1.51"/><path d="M112,689L115,889L307,743Z" fill="#f29e48" stroke="#f29e48" stroke-width="1.51"/><path d="M278,562L112,689L307,743Z" fill="#f9a444" stroke="#f9a444" stroke-width="1.51"/><path d="M109,1025L91,1168L243,1208Z" fill="#c48545" stroke="#c48545" stroke-width="1.51"/><path d="M105,589L112,689L278,562Z" fill="#fcaf52" stroke="#fcaf52" stroke-width="1.51"/><path d="M115,889L239,992L302,894Z" fill="#e28d3c" stroke="#e28d3c" stroke-width="1.51"/><path d="M147,142L92,306L256,309Z" fill="#ffd574" stroke="#ffd574" stroke-width="1.51"/><path d="M139,407L105,589L278,562Z" fill="#ffb856" stroke="#ffb856" stroke-width="1.51"/><path d="M92,-7L261,100L279,-2Z" fill="#ffe18e" stroke="#ffe18e" stroke-width="1.51"/><path d="M-208,-209L-45,-139L151,-196Z" fill="#fff8c6" stroke="#fff8c6" stroke-width="1.51"/><path d="M139,407L253,393L256,309Z" fill="#ffc65c" stroke="#ffc65c" stroke-width="1.51"/><path d="M92,-7L147,142L261,100Z" fill="#ffe290" stroke="#ffe290" stroke-width="1.51"/><path d="M92,306L139,407L256,309Z" fill="#ffcd68" stroke="#ffcd68" stroke-width="1.51"/><path d="M115,889L109,1025L239,992Z" fill="#dc9046" stroke="#dc9046" stroke-width="1.51"/><path d="M-39,125L-44,276L92,306Z" fill="#ffe08c" stroke="#ffe08c" stroke-width="1.51"/><path d="M-48,722L-22,883L112,689Z" fill="#f5a95e" stroke="#f5a95e" stroke-width="1.51"/><path d="M112,689L-22,883L115,889Z" fill="#f0a156" stroke="#f0a156" stroke-width="1.51"/><path d="M8,432L105,589L139,407Z" fill="#ffc366" stroke="#ffc366" stroke-width="1.51"/><path d="M92,-7L-39,125L147,142Z" fill="#ffe89c" stroke="#ffe89c" stroke-width="1.51"/><path d="M-39,125L92,306L147,142Z" fill="#ffe08c" stroke="#ffe08c" stroke-width="1.51"/><path d="M-45,-139L92,-7L151,-196Z" fill="#fff1b3" stroke="#fff1b3" stroke-width="1.51"/><path d="M-45,-139L1,-9L92,-7Z" fill="#fff2b2" stroke="#fff2b2" stroke-width="1.51"/><path d="M1,-9L-39,125L92,-7Z" fill="#ffeda8" stroke="#ffeda8" stroke-width="1.51"/><path d="M-5,1037L91,1168L109,1025Z" fill="#ce8d50" stroke="#ce8d50" stroke-width="1.51"/><path d="M-5,1037L109,1025L115,889Z" fill="#dc9451" stroke="#dc9451" stroke-width="1.51"/><path d="M-22,883L-5,1037L115,889Z" fill="#e39a57" stroke="#e39a57" stroke-width="1.51"/><path d="M92,306L8,432L139,407Z" fill="#ffce6f" stroke="#ffce6f" stroke-width="1.51"/><path d="M8,432L8,603L105,589Z" fill="#ffbe67" stroke="#ffbe67" stroke-width="1.51"/><path d="M105,589L8,603L112,689Z" fill="#fdb35e" stroke="#fdb35e" stroke-width="1.51"/><path d="M8,603L-48,722L112,689Z" fill="#fcb262" stroke="#fcb262" stroke-width="1.51"/><path d="M-5,1037L1,1193L91,1168Z" fill="#c68c53" stroke="#c68c53" stroke-width="1.51"/><path d="M-44,276L8,432L92,306Z" fill="#ffd67b" stroke="#ffd67b" stroke-width="1.51"/><path d="M-22,883L-197,1051L-5,1037Z" fill="#dd9b61" stroke="#dd9b61" stroke-width="1.51"/><path d="M-5,1037L-148,1176L1,1193Z" fill="#c7905c" stroke="#c7905c" stroke-width="1.51"/><path d="M-174,9L-39,125L1,-9Z" fill="#fff1b1" stroke="#fff1b1" stroke-width="1.51"/><path d="M-45,-139L-174,9L1,-9Z" fill="#fff6bb" stroke="#fff6bb" stroke-width="1.51"/><path d="M-44,276L-149,401L8,432Z" fill="#ffd781" stroke="#ffd781" stroke-width="1.51"/><path d="M-197,598L-48,722L8,603Z" fill="#ffba6f" stroke="#ffba6f" stroke-width="1.51"/><path d="M8,432L-149,401L8,603Z" fill="#ffca75" stroke="#ffca75" stroke-width="1.51"/><path d="M-149,401L-197,598L8,603Z" fill="#ffc679" stroke="#ffc679" stroke-width="1.51"/><path d="M-48,722L-209,840L-22,883Z" fill="#f3a968" stroke="#f3a968" stroke-width="1.51"/><path d="M-197,1051L-148,1176L-5,1037Z" fill="#cf9463" stroke="#cf9463" stroke-width="1.51"/><path d="M-178,141L-44,276L-39,125Z" fill="#ffe9a0" stroke="#ffe9a0" stroke-width="1.51"/><path d="M-172,718L-209,840L-48,722Z" fill="#f8af71" stroke="#f8af71" stroke-width="1.51"/><path d="M-197,598L-172,718L-48,722Z" fill="#feb774" stroke="#feb774" stroke-width="1.51"/><path d="M-209,840L-197,1051L-22,883Z" fill="#e7a16a" stroke="#e7a16a" stroke-width="1.51"/><path d="M-193,302L-149,401L-44,276Z" fill="#ffdd8c" stroke="#ffdd8c" stroke-width="1.51"/><path d="M-178,141L-193,302L-44,276Z" fill="#ffe59c" stroke="#ffe59c" stroke-width="1.51"/><path d="M-174,9L-178,141L-39,125Z" fill="#fff0b2" stroke="#fff0b2" stroke-width="1.51"/><path d="M-208,-209L-174,9L-45,-139Z" fill="#fff9ca" stroke="#fff9ca" stroke-width="1.51"/><path d="M-193,302L-197,598L-149,401Z" fill="#ffd289" stroke="#ffd289" stroke-width="1.51"/><path d="M-197,598L-209,840L-172,718Z" fill="#fcb477" stroke="#fcb477" stroke-width="1.51"/><path d="M-208,-209L-178,141L-174,9Z" fill="#fff7c5" stroke="#fff7c5" stroke-width="1.51"/><path d="M-208,-209L-193,302L-178,141Z" fill="#fff2bb" stroke="#fff2bb" stroke-width="1.51"/><path d="M-209,840L-197,598L-193,302Z" fill="#ffc380" stroke="#ffc380" stroke-width="1.51"/><path d="M-208,-209L-209,840L-193,302Z" fill="#ffe097" stroke="#ffe097" stroke-width="1.51"/></svg>